<svg width="4461" height="2026" xmlns="http://www.w3.org/2000/svg" xmlns:xlink="http://www.w3.org/1999/xlink" overflow="hidden"><defs><clipPath id="clip0"><rect x="1264" y="590" width="4461" height="2026"/></clipPath><clipPath id="clip1"><rect x="1264" y="591" width="4459" height="2023"/></clipPath><clipPath id="clip2"><rect x="1264" y="591" width="4459" height="2023"/></clipPath><clipPath id="clip3"><rect x="1492" y="761" width="3806" height="1649"/></clipPath><clipPath id="clip4"><rect x="1492" y="761" width="3806" height="1649"/></clipPath><clipPath id="clip5"><rect x="1492" y="761" width="3806" height="1649"/></clipPath><clipPath id="clip6"><rect x="1492" y="761" width="3806" height="1649"/></clipPath><clipPath id="clip7"><rect x="1492" y="761" width="3806" height="1649"/></clipPath><clipPath id="clip8"><rect x="1492" y="761" width="3806" height="1649"/></clipPath><clipPath id="clip9"><rect x="1492" y="761" width="3806" height="1649"/></clipPath><clipPath id="clip10"><rect x="1264" y="591" width="4459" height="2023"/></clipPath><clipPath id="clip11"><rect x="1264" y="591" width="4459" height="2023"/></clipPath><clipPath id="clip12"><rect x="1264" y="591" width="4459" height="2023"/></clipPath><clipPath id="clip13"><rect x="1264" y="591" width="4459" height="2023"/></clipPath><clipPath id="clip14"><rect x="1264" y="591" width="4459" height="2023"/></clipPath><clipPath id="clip15"><rect x="1264" y="591" width="4459" height="2023"/></clipPath><clipPath id="clip16"><rect x="1264" y="591" width="4459" height="2023"/></clipPath><clipPath id="clip17"><rect x="1264" y="591" width="4459" height="2023"/></clipPath><clipPath id="clip18"><rect x="1264" y="591" width="4459" height="2023"/></clipPath><clipPath id="clip19"><rect x="1264" y="591" width="4459" height="2023"/></clipPath><clipPath id="clip20"><rect x="1264" y="591" width="4459" height="2023"/></clipPath><clipPath id="clip21"><rect x="1264" y="591" width="4459" height="2023"/></clipPath><clipPath id="clip22"><rect x="1264" y="591" width="4459" height="2023"/></clipPath><clipPath id="clip23"><rect x="1264" y="591" width="4459" height="2023"/></clipPath><clipPath id="clip24"><rect x="1264" y="591" width="4459" height="2023"/></clipPath><clipPath id="clip25"><rect x="1264" y="591" width="4459" height="2023"/></clipPath><clipPath id="clip26"><rect x="1264" y="591" width="4459" height="2023"/></clipPath><clipPath id="clip27"><rect x="1264" y="591" width="4459" height="2023"/></clipPath><clipPath id="clip28"><rect x="1264" y="591" width="4459" height="2023"/></clipPath><clipPath id="clip29"><rect x="1264" y="591" width="4459" height="2023"/></clipPath><clipPath id="clip30"><rect x="1264" y="591" width="4459" height="2023"/></clipPath><clipPath id="clip31"><rect x="1264" y="591" width="4459" height="2023"/></clipPath><clipPath id="clip32"><rect x="1264" y="591" width="4459" height="2023"/></clipPath><clipPath id="clip33"><rect x="1264" y="591" width="4459" height="2023"/></clipPath><clipPath id="clip34"><rect x="1264" y="591" width="4459" height="2023"/></clipPath><clipPath id="clip35"><rect x="1264" y="591" width="4459" height="2023"/></clipPath><clipPath id="clip36"><rect x="1264" y="591" width="4459" height="2023"/></clipPath></defs><g clip-path="url(#clip0)" transform="translate(-1264 -590)"><rect x="1265" y="591" width="4458" height="2023" fill="#FFFFFF"/><g clip-path="url(#clip1)"><path d="M1492.5 2135.57 5295.5 2135.57M1492.5 1860.56 5295.5 1860.56M1492.5 1585.55 5295.5 1585.55M1492.5 1311.54 5295.5 1311.54M1492.5 1036.53 5295.5 1036.53M1492.5 761.5 5295.5 761.5" stroke="#D9D9D9" stroke-width="3.4375" stroke-linejoin="round" stroke-miterlimit="10" fill="none"/></g><g clip-path="url(#clip2)"><path d="M1492.5 2410.5 5295.5 2410.5" stroke="#D9D9D9" stroke-width="3.4375" stroke-linejoin="round" stroke-miterlimit="10" fill="none" fill-rule="evenodd"/></g><g clip-path="url(#clip3)"><path d="M1764.56 2351.58 1764.56 2354.5M1764.56 2351.58 1764.56 2348.5M1754.5 2354.5 1774.5 2354.5M1754.5 2348.5 1774.5 2348.5" stroke="#595959" stroke-width="3.4375" stroke-linejoin="round" stroke-miterlimit="10" fill="none"/></g><g clip-path="url(#clip4)"><path d="M2307.58 2363.58 2307.58 2367.5M2307.58 2363.58 2307.58 2359.5M2297.5 2367.5 2318.5 2367.5M2297.5 2359.5 2318.5 2359.5" stroke="#595959" stroke-width="3.4375" stroke-linejoin="round" stroke-miterlimit="10" fill="none"/></g><g clip-path="url(#clip5)"><path d="M2850.59 2363.58 2850.59 2364.5M2850.59 2363.58 2850.59 2362.5M2840.5 2364.5 2861.5 2364.5M2840.5 2362.5 2861.5 2362.5" stroke="#595959" stroke-width="3.4375" stroke-linejoin="round" stroke-miterlimit="10" fill="none"/></g><g clip-path="url(#clip6)"><path d="M3394.61 2353.58 3394.61 2355.5M3394.61 2353.58 3394.61 2351.5M3383.5 2355.5 3404.5 2355.5M3383.5 2351.5 3404.5 2351.5" stroke="#595959" stroke-width="3.4375" stroke-linejoin="round" stroke-miterlimit="10" fill="none"/></g><g clip-path="url(#clip7)"><path d="M3937.63 2331.58 3937.63 2333.5M3937.63 2331.58 3937.63 2328.5M3927.5 2333.5 3947.5 2333.5M3927.5 2328.5 3947.5 2328.5" stroke="#595959" stroke-width="3.4375" stroke-linejoin="round" stroke-miterlimit="10" fill="none"/></g><g clip-path="url(#clip8)"><path d="M4480.65 2161.57 4480.65 2172.5M4480.65 2161.57 4480.65 2150.5M4470.5 2172.5 4491.5 2172.5M4470.5 2150.5 4491.5 2150.5" stroke="#595959" stroke-width="3.4375" stroke-linejoin="round" stroke-miterlimit="10" fill="none"/></g><g clip-path="url(#clip9)"><path d="M5023.67 915.53 5023.67 986.5M5023.67 915.53 5023.67 844.5M5013.5 986.5 5034.5 986.5M5013.5 844.5 5034.5 844.5" stroke="#595959" stroke-width="3.4375" stroke-linejoin="round" stroke-miterlimit="10" fill="none"/></g><g clip-path="url(#clip10)"><path d="M1775.5 2351.75C1775.5 2357.82 1770.57 2362.75 1764.5 2362.75 1758.42 2362.75 1753.5 2357.82 1753.5 2351.75 1753.5 2345.67 1758.42 2340.75 1764.5 2340.75 1770.57 2340.75 1775.5 2345.67 1775.5 2351.75Z" stroke="#4472C4" stroke-width="3.4375" stroke-linejoin="round" stroke-miterlimit="10" fill="#4472C4"/><path d="M2318.5 2363.75C2318.5 2369.82 2313.57 2374.75 2307.5 2374.75 2301.42 2374.75 2296.5 2369.82 2296.5 2363.75 2296.5 2357.67 2301.42 2352.75 2307.5 2352.75 2313.57 2352.75 2318.5 2357.67 2318.5 2363.75Z" stroke="#4472C4" stroke-width="3.4375" stroke-linejoin="round" stroke-miterlimit="10" fill="#4472C4"/><path d="M2862.5 2363.75C2862.5 2369.82 2857.57 2374.75 2851.5 2374.75 2845.42 2374.75 2840.5 2369.82 2840.5 2363.75 2840.5 2357.67 2845.42 2352.75 2851.5 2352.75 2857.57 2352.75 2862.5 2357.67 2862.5 2363.75Z" stroke="#4472C4" stroke-width="3.4375" stroke-linejoin="round" stroke-miterlimit="10" fill="#4472C4"/><path d="M3405.5 2353.75C3405.5 2359.82 3400.57 2364.75 3394.5 2364.75 3388.42 2364.75 3383.5 2359.82 3383.5 2353.75 3383.5 2347.67 3388.42 2342.75 3394.5 2342.75 3400.57 2342.75 3405.5 2347.67 3405.5 2353.75Z" stroke="#4472C4" stroke-width="3.4375" stroke-linejoin="round" stroke-miterlimit="10" fill="#4472C4"/><path d="M3948.5 2331.75C3948.5 2337.82 3943.57 2342.75 3937.5 2342.75 3931.42 2342.75 3926.5 2337.82 3926.5 2331.75 3926.5 2325.67 3931.42 2320.75 3937.5 2320.75 3943.57 2320.75 3948.5 2325.67 3948.5 2331.75Z" stroke="#4472C4" stroke-width="3.4375" stroke-linejoin="round" stroke-miterlimit="10" fill="#4472C4"/><path d="M4491.5 2161.75C4491.5 2167.82 4486.57 2172.75 4480.5 2172.75 4474.42 2172.75 4469.5 2167.82 4469.5 2161.75 4469.5 2155.67 4474.42 2150.75 4480.5 2150.75 4486.57 2150.75 4491.5 2155.67 4491.5 2161.75Z" stroke="#4472C4" stroke-width="3.4375" stroke-linejoin="round" stroke-miterlimit="10" fill="#4472C4"/><path d="M5034.5 915.75C5034.5 921.825 5029.57 926.749 5023.5 926.749 5017.42 926.749 5012.5 921.825 5012.5 915.75 5012.5 909.675 5017.42 904.75 5023.5 904.75 5029.57 904.75 5034.5 909.675 5034.5 915.75Z" stroke="#4472C4" stroke-width="3.4375" stroke-linejoin="round" stroke-miterlimit="10" fill="#4472C4"/></g><g clip-path="url(#clip11)"><text fill="#404040" font-family="Calibri,Calibri_MSFontService,sans-serif" font-weight="400" font-size="41" transform="matrix(1 0 0 1 1803.52 2365)">21.51489258</text></g><g clip-path="url(#clip12)"><text fill="#404040" font-family="Calibri,Calibri_MSFontService,sans-serif" font-weight="400" font-size="41" transform="matrix(1 0 0 1 2346.74 2377)">17.15183258</text></g><g clip-path="url(#clip13)"><text fill="#404040" font-family="Calibri,Calibri_MSFontService,sans-serif" font-weight="400" font-size="41" transform="matrix(1 0 0 1 2889.97 2377)">17.2829628</text></g><g clip-path="url(#clip14)"><text fill="#404040" font-family="Calibri,Calibri_MSFontService,sans-serif" font-weight="400" font-size="41" transform="matrix(1 0 0 1 3433.2 2367)">20.79248428</text></g><g clip-path="url(#clip15)"><text fill="#404040" font-family="Calibri,Calibri_MSFontService,sans-serif" font-weight="400" font-size="41" transform="matrix(1 0 0 1 3976.42 2345)">28.88917923</text></g><g clip-path="url(#clip16)"><text fill="#404040" font-family="Calibri,Calibri_MSFontService,sans-serif" font-weight="400" font-size="41" transform="matrix(1 0 0 1 4519.65 2176)">90.48461914</text></g><g clip-path="url(#clip17)"><text fill="#404040" font-family="Calibri,Calibri_MSFontService,sans-serif" font-weight="400" font-size="41" transform="matrix(1 0 0 1 5062.87 929)">544.0163612</text></g><g clip-path="url(#clip18)"><text fill="#595959" font-family="Calibri,Calibri_MSFontService,sans-serif" font-weight="400" font-size="41" transform="matrix(1 0 0 1 1433.78 2422)">0</text></g><g clip-path="url(#clip19)"><text fill="#595959" font-family="Calibri,Calibri_MSFontService,sans-serif" font-weight="400" font-size="41" transform="matrix(1 0 0 1 1391.98 2147)">100</text></g><g clip-path="url(#clip20)"><text fill="#595959" font-family="Calibri,Calibri_MSFontService,sans-serif" font-weight="400" font-size="41" transform="matrix(1 0 0 1 1391.98 1872)">200</text></g><g clip-path="url(#clip21)"><text fill="#595959" font-family="Calibri,Calibri_MSFontService,sans-serif" font-weight="400" font-size="41" transform="matrix(1 0 0 1 1391.98 1598)">300</text></g><g clip-path="url(#clip22)"><text fill="#595959" font-family="Calibri,Calibri_MSFontService,sans-serif" font-weight="400" font-size="41" transform="matrix(1 0 0 1 1391.98 1323)">400</text></g><g clip-path="url(#clip23)"><text fill="#595959" font-family="Calibri,Calibri_MSFontService,sans-serif" font-weight="400" font-size="41" transform="matrix(1 0 0 1 1391.98 1048)">500</text></g><g clip-path="url(#clip24)"><text fill="#595959" font-family="Calibri,Calibri_MSFontService,sans-serif" font-weight="400" font-size="41" transform="matrix(1 0 0 1 1391.98 773)">600</text></g><g clip-path="url(#clip25)"><text fill="#595959" font-family="Calibri,Calibri_MSFontService,sans-serif" font-weight="400" font-size="41" transform="matrix(1 0 0 1 1754.11 2476)">8</text></g><g clip-path="url(#clip26)"><text fill="#595959" font-family="Calibri,Calibri_MSFontService,sans-serif" font-weight="400" font-size="41" transform="matrix(1 0 0 1 2286.89 2476)">64</text></g><g clip-path="url(#clip27)"><text fill="#595959" font-family="Calibri,Calibri_MSFontService,sans-serif" font-weight="400" font-size="41" transform="matrix(1 0 0 1 2819.66 2476)">512</text></g><g clip-path="url(#clip28)"><text fill="#595959" font-family="Calibri,Calibri_MSFontService,sans-serif" font-weight="400" font-size="41" transform="matrix(1 0 0 1 3352.44 2476)">4096</text></g><g clip-path="url(#clip29)"><text fill="#595959" font-family="Calibri,Calibri_MSFontService,sans-serif" font-weight="400" font-size="41" transform="matrix(1 0 0 1 3885.21 2476)">32768</text></g><g clip-path="url(#clip30)"><text fill="#595959" font-family="Calibri,Calibri_MSFontService,sans-serif" font-weight="400" font-size="41" transform="matrix(1 0 0 1 4417.99 2476)">262144</text></g><g clip-path="url(#clip31)"><text fill="#595959" font-family="Calibri,Calibri_MSFontService,sans-serif" font-weight="400" font-size="41" transform="matrix(1 0 0 1 4950.77 2476)">2047152</text></g><g clip-path="url(#clip32)"><text fill="#595959" font-family="Calibri,Calibri_MSFontService,sans-serif" font-weight="400" font-size="46" transform="matrix(6.12323e-17 -1 1 6.12323e-17 1366.29 1722)">Microsecpmds</text></g><g clip-path="url(#clip33)"><text fill="#595959" font-family="Calibri,Calibri_MSFontService,sans-serif" font-weight="400" font-size="46" transform="matrix(1 0 0 1 3343.36 2545)">Bytes</text></g><g clip-path="url(#clip34)"><text fill="#595959" font-family="Calibri,Calibri_MSFontService,sans-serif" font-weight="400" font-size="64" transform="matrix(1 0 0 1 3222.71 687)">AES Decryption Time</text></g><g clip-path="url(#clip35)"><path d="M5389 1662C5389 1668.07 5384.08 1673 5378 1673 5371.92 1673 5367 1668.07 5367 1662 5367 1655.92 5371.92 1651 5378 1651 5384.08 1651 5389 1655.92 5389 1662Z" stroke="#4472C4" stroke-width="3.4375" stroke-linejoin="round" stroke-miterlimit="10" fill="#4472C4"/></g><g clip-path="url(#clip36)"><text fill="#595959" font-family="Calibri,Calibri_MSFontService,sans-serif" font-weight="400" font-size="41" transform="matrix(1 0 0 1 5399.85 1674)">Decryption Time</text></g><rect x="1265.5" y="591.5" width="4458" height="2023" stroke="#D9D9D9" stroke-width="3.4375" stroke-linejoin="round" stroke-miterlimit="10" fill="none"/></g></svg>