<svg width="4461" height="2026" xmlns="http://www.w3.org/2000/svg" xmlns:xlink="http://www.w3.org/1999/xlink" overflow="hidden"><defs><clipPath id="clip0"><rect x="1264" y="590" width="4461" height="2026"/></clipPath><clipPath id="clip1"><rect x="1264" y="591" width="4459" height="2023"/></clipPath><clipPath id="clip2"><rect x="1264" y="591" width="4459" height="2023"/></clipPath><clipPath id="clip3"><rect x="1492" y="761" width="3811" height="1649"/></clipPath><clipPath id="clip4"><rect x="1492" y="761" width="3811" height="1649"/></clipPath><clipPath id="clip5"><rect x="1492" y="761" width="3811" height="1649"/></clipPath><clipPath id="clip6"><rect x="1492" y="761" width="3811" height="1649"/></clipPath><clipPath id="clip7"><rect x="1492" y="761" width="3811" height="1649"/></clipPath><clipPath id="clip8"><rect x="1492" y="761" width="3811" height="1649"/></clipPath><clipPath id="clip9"><rect x="1492" y="761" width="3811" height="1649"/></clipPath><clipPath id="clip10"><rect x="1264" y="591" width="4459" height="2023"/></clipPath><clipPath id="clip11"><rect x="1264" y="591" width="4459" height="2023"/></clipPath><clipPath id="clip12"><rect x="1264" y="591" width="4459" height="2023"/></clipPath><clipPath id="clip13"><rect x="1264" y="591" width="4459" height="2023"/></clipPath><clipPath id="clip14"><rect x="1264" y="591" width="4459" height="2023"/></clipPath><clipPath id="clip15"><rect x="1264" y="591" width="4459" height="2023"/></clipPath><clipPath id="clip16"><rect x="1264" y="591" width="4459" height="2023"/></clipPath><clipPath id="clip17"><rect x="1264" y="591" width="4459" height="2023"/></clipPath><clipPath id="clip18"><rect x="1264" y="591" width="4459" height="2023"/></clipPath><clipPath id="clip19"><rect x="1264" y="591" width="4459" height="2023"/></clipPath><clipPath id="clip20"><rect x="1264" y="591" width="4459" height="2023"/></clipPath><clipPath id="clip21"><rect x="1264" y="591" width="4459" height="2023"/></clipPath><clipPath id="clip22"><rect x="1264" y="591" width="4459" height="2023"/></clipPath><clipPath id="clip23"><rect x="1264" y="591" width="4459" height="2023"/></clipPath><clipPath id="clip24"><rect x="1264" y="591" width="4459" height="2023"/></clipPath><clipPath id="clip25"><rect x="1264" y="591" width="4459" height="2023"/></clipPath><clipPath id="clip26"><rect x="1264" y="591" width="4459" height="2023"/></clipPath><clipPath id="clip27"><rect x="1264" y="591" width="4459" height="2023"/></clipPath><clipPath id="clip28"><rect x="1264" y="591" width="4459" height="2023"/></clipPath><clipPath id="clip29"><rect x="1264" y="591" width="4459" height="2023"/></clipPath><clipPath id="clip30"><rect x="1264" y="591" width="4459" height="2023"/></clipPath><clipPath id="clip31"><rect x="1264" y="591" width="4459" height="2023"/></clipPath><clipPath id="clip32"><rect x="1264" y="591" width="4459" height="2023"/></clipPath><clipPath id="clip33"><rect x="1264" y="591" width="4459" height="2023"/></clipPath><clipPath id="clip34"><rect x="1264" y="591" width="4459" height="2023"/></clipPath><clipPath id="clip35"><rect x="1264" y="591" width="4459" height="2023"/></clipPath><clipPath id="clip36"><rect x="1264" y="591" width="4459" height="2023"/></clipPath><clipPath id="clip37"><rect x="1264" y="591" width="4459" height="2023"/></clipPath><clipPath id="clip38"><rect x="1264" y="591" width="4459" height="2023"/></clipPath></defs><g clip-path="url(#clip0)" transform="translate(-1264 -590)"><rect x="1265" y="591" width="4458" height="2023" fill="#FFFFFF"/><g clip-path="url(#clip1)"><path d="M1492.5 2204.57 5299.5 2204.57M1492.5 1998.57 5299.5 1998.57M1492.5 1792.56 5299.5 1792.56M1492.5 1585.55 5299.5 1585.55M1492.5 1379.55 5299.5 1379.55M1492.5 1173.54 5299.5 1173.54M1492.5 967.532 5299.5 967.532M1492.5 761.5 5299.5 761.5" stroke="#D9D9D9" stroke-width="3.4375" stroke-linejoin="round" stroke-miterlimit="10" fill="none"/></g><g clip-path="url(#clip2)"><path d="M1492.5 2410.5 5299.5 2410.5" stroke="#D9D9D9" stroke-width="3.4375" stroke-linejoin="round" stroke-miterlimit="10" fill="none" fill-rule="evenodd"/></g><g clip-path="url(#clip3)"><path d="M1764.56 2373.58 1764.56 2375.5M1764.56 2373.58 1764.56 2372.5M1754.5 2375.5 1775.5 2375.5M1754.5 2372.5 1775.5 2372.5" stroke="#595959" stroke-width="3.4375" stroke-linejoin="round" stroke-miterlimit="10" fill="none"/></g><g clip-path="url(#clip4)"><path d="M2308.58 2375.58 2308.58 2376.5M2308.58 2375.58 2308.58 2374.5M2298.5 2376.5 2318.5 2376.5M2298.5 2374.5 2318.5 2374.5" stroke="#595959" stroke-width="3.4375" stroke-linejoin="round" stroke-miterlimit="10" fill="none"/></g><g clip-path="url(#clip5)"><path d="M2852.59 2365.58 2852.59 2369.5M2852.59 2365.58 2852.59 2360.5M2842.5 2369.5 2862.5 2369.5M2842.5 2360.5 2862.5 2360.5" stroke="#595959" stroke-width="3.4375" stroke-linejoin="round" stroke-miterlimit="10" fill="none"/></g><g clip-path="url(#clip6)"><path d="M3396.61 2353.58 3396.61 2356.5M3396.61 2353.58 3396.61 2350.5M3385.5 2356.5 3406.5 2356.5M3385.5 2350.5 3406.5 2350.5" stroke="#595959" stroke-width="3.4375" stroke-linejoin="round" stroke-miterlimit="10" fill="none"/></g><g clip-path="url(#clip7)"><path d="M3939.63 2328.58 3939.63 2330.5M3939.63 2328.58 3939.63 2326.5M3929.5 2330.5 3950.5 2330.5M3929.5 2326.5 3950.5 2326.5" stroke="#595959" stroke-width="3.4375" stroke-linejoin="round" stroke-miterlimit="10" fill="none"/></g><g clip-path="url(#clip8)"><path d="M4483.65 2138.57 4483.65 2149.5M4483.65 2138.57 4483.65 2127.5M4473.5 2149.5 4494.5 2149.5M4473.5 2127.5 4494.5 2127.5" stroke="#595959" stroke-width="3.4375" stroke-linejoin="round" stroke-miterlimit="10" fill="none"/></g><g clip-path="url(#clip9)"><path d="M5027.67 943.531 5027.67 1013.5M5027.67 943.531 5027.67 873.5M5017.5 1013.5 5038.5 1013.5M5017.5 873.5 5038.5 873.5" stroke="#595959" stroke-width="3.4375" stroke-linejoin="round" stroke-miterlimit="10" fill="none"/></g><g clip-path="url(#clip10)"><path d="M1775.5 2374.75C1775.5 2380.82 1770.57 2385.75 1764.5 2385.75 1758.42 2385.75 1753.5 2380.82 1753.5 2374.75 1753.5 2368.67 1758.42 2363.75 1764.5 2363.75 1770.57 2363.75 1775.5 2368.67 1775.5 2374.75Z" stroke="#4472C4" stroke-width="3.4375" stroke-linejoin="round" stroke-miterlimit="10" fill="#4472C4"/><path d="M2319.5 2375.75C2319.5 2381.82 2314.57 2386.75 2308.5 2386.75 2302.42 2386.75 2297.5 2381.82 2297.5 2375.75 2297.5 2369.67 2302.42 2364.75 2308.5 2364.75 2314.57 2364.75 2319.5 2369.67 2319.5 2375.75Z" stroke="#4472C4" stroke-width="3.4375" stroke-linejoin="round" stroke-miterlimit="10" fill="#4472C4"/><path d="M2863.5 2365.75C2863.5 2371.82 2858.57 2376.75 2852.5 2376.75 2846.42 2376.75 2841.5 2371.82 2841.5 2365.75 2841.5 2359.67 2846.42 2354.75 2852.5 2354.75 2858.57 2354.75 2863.5 2359.67 2863.5 2365.75Z" stroke="#4472C4" stroke-width="3.4375" stroke-linejoin="round" stroke-miterlimit="10" fill="#4472C4"/><path d="M3407.5 2353.75C3407.5 2359.82 3402.57 2364.75 3396.5 2364.75 3390.42 2364.75 3385.5 2359.82 3385.5 2353.75 3385.5 2347.67 3390.42 2342.75 3396.5 2342.75 3402.57 2342.75 3407.5 2347.67 3407.5 2353.75Z" stroke="#4472C4" stroke-width="3.4375" stroke-linejoin="round" stroke-miterlimit="10" fill="#4472C4"/><path d="M3951.5 2328.75C3951.5 2334.82 3946.57 2339.75 3940.5 2339.75 3934.42 2339.75 3929.5 2334.82 3929.5 2328.75 3929.5 2322.67 3934.42 2317.75 3940.5 2317.75 3946.57 2317.75 3951.5 2322.67 3951.5 2328.75Z" stroke="#4472C4" stroke-width="3.4375" stroke-linejoin="round" stroke-miterlimit="10" fill="#4472C4"/><path d="M4494.5 2138.75C4494.5 2144.82 4489.57 2149.75 4483.5 2149.75 4477.42 2149.75 4472.5 2144.82 4472.5 2138.75 4472.5 2132.67 4477.42 2127.75 4483.5 2127.75 4489.57 2127.75 4494.5 2132.67 4494.5 2138.75Z" stroke="#4472C4" stroke-width="3.4375" stroke-linejoin="round" stroke-miterlimit="10" fill="#4472C4"/><path d="M5038.5 943.75C5038.5 949.825 5033.57 954.749 5027.5 954.749 5021.42 954.749 5016.5 949.825 5016.5 943.75 5016.5 937.675 5021.42 932.75 5027.5 932.75 5033.57 932.75 5038.5 937.675 5038.5 943.75Z" stroke="#4472C4" stroke-width="3.4375" stroke-linejoin="round" stroke-miterlimit="10" fill="#4472C4"/></g><g clip-path="url(#clip11)"><text fill="#404040" font-family="Calibri,Calibri_MSFontService,sans-serif" font-weight="400" font-size="41" transform="matrix(1 0 0 1 1803.81 2388)">17.77887344</text></g><g clip-path="url(#clip12)"><text fill="#404040" font-family="Calibri,Calibri_MSFontService,sans-serif" font-weight="400" font-size="41" transform="matrix(1 0 0 1 2347.62 2389)">17.14706421</text></g><g clip-path="url(#clip13)"><text fill="#404040" font-family="Calibri,Calibri_MSFontService,sans-serif" font-weight="400" font-size="41" transform="matrix(1 0 0 1 2891.43 2379)">22.0489502</text></g><g clip-path="url(#clip14)"><text fill="#404040" font-family="Calibri,Calibri_MSFontService,sans-serif" font-weight="400" font-size="41" transform="matrix(1 0 0 1 3435.24 2367)">27.78530121</text></g><g clip-path="url(#clip15)"><text fill="#404040" font-family="Calibri,Calibri_MSFontService,sans-serif" font-weight="400" font-size="41" transform="matrix(1 0 0 1 3979.04 2342)">40.0686264</text></g><g clip-path="url(#clip16)"><text fill="#404040" font-family="Calibri,Calibri_MSFontService,sans-serif" font-weight="400" font-size="41" transform="matrix(1 0 0 1 4522.85 2152)">132.1840286</text></g><g clip-path="url(#clip17)"><text fill="#404040" font-family="Calibri,Calibri_MSFontService,sans-serif" font-weight="400" font-size="41" transform="matrix(1 0 0 1 5066.66 957)">711.6031647</text></g><g clip-path="url(#clip18)"><text fill="#595959" font-family="Calibri,Calibri_MSFontService,sans-serif" font-weight="400" font-size="41" transform="matrix(1 0 0 1 1433.78 2422)">0</text></g><g clip-path="url(#clip19)"><text fill="#595959" font-family="Calibri,Calibri_MSFontService,sans-serif" font-weight="400" font-size="41" transform="matrix(1 0 0 1 1391.98 2216)">100</text></g><g clip-path="url(#clip20)"><text fill="#595959" font-family="Calibri,Calibri_MSFontService,sans-serif" font-weight="400" font-size="41" transform="matrix(1 0 0 1 1391.98 2010)">200</text></g><g clip-path="url(#clip21)"><text fill="#595959" font-family="Calibri,Calibri_MSFontService,sans-serif" font-weight="400" font-size="41" transform="matrix(1 0 0 1 1391.98 1804)">300</text></g><g clip-path="url(#clip22)"><text fill="#595959" font-family="Calibri,Calibri_MSFontService,sans-serif" font-weight="400" font-size="41" transform="matrix(1 0 0 1 1391.98 1598)">400</text></g><g clip-path="url(#clip23)"><text fill="#595959" font-family="Calibri,Calibri_MSFontService,sans-serif" font-weight="400" font-size="41" transform="matrix(1 0 0 1 1391.98 1391)">500</text></g><g clip-path="url(#clip24)"><text fill="#595959" font-family="Calibri,Calibri_MSFontService,sans-serif" font-weight="400" font-size="41" transform="matrix(1 0 0 1 1391.98 1185)">600</text></g><g clip-path="url(#clip25)"><text fill="#595959" font-family="Calibri,Calibri_MSFontService,sans-serif" font-weight="400" font-size="41" transform="matrix(1 0 0 1 1391.98 979)">700</text></g><g clip-path="url(#clip26)"><text fill="#595959" font-family="Calibri,Calibri_MSFontService,sans-serif" font-weight="400" font-size="41" transform="matrix(1 0 0 1 1391.98 773)">800</text></g><g clip-path="url(#clip27)"><text fill="#595959" font-family="Calibri,Calibri_MSFontService,sans-serif" font-weight="400" font-size="41" transform="matrix(1 0 0 1 1754.4 2476)">8</text></g><g clip-path="url(#clip28)"><text fill="#595959" font-family="Calibri,Calibri_MSFontService,sans-serif" font-weight="400" font-size="41" transform="matrix(1 0 0 1 2287.76 2476)">64</text></g><g clip-path="url(#clip29)"><text fill="#595959" font-family="Calibri,Calibri_MSFontService,sans-serif" font-weight="400" font-size="41" transform="matrix(1 0 0 1 2821.12 2476)">512</text></g><g clip-path="url(#clip30)"><text fill="#595959" font-family="Calibri,Calibri_MSFontService,sans-serif" font-weight="400" font-size="41" transform="matrix(1 0 0 1 3354.48 2476)">4096</text></g><g clip-path="url(#clip31)"><text fill="#595959" font-family="Calibri,Calibri_MSFontService,sans-serif" font-weight="400" font-size="41" transform="matrix(1 0 0 1 3887.84 2476)">32768</text></g><g clip-path="url(#clip32)"><text fill="#595959" font-family="Calibri,Calibri_MSFontService,sans-serif" font-weight="400" font-size="41" transform="matrix(1 0 0 1 4421.19 2476)">262144</text></g><g clip-path="url(#clip33)"><text fill="#595959" font-family="Calibri,Calibri_MSFontService,sans-serif" font-weight="400" font-size="41" transform="matrix(1 0 0 1 4954.55 2476)">2047152</text></g><g clip-path="url(#clip34)"><text fill="#595959" font-family="Calibri,Calibri_MSFontService,sans-serif" font-weight="400" font-size="46" transform="matrix(6.12323e-17 -1 1 6.12323e-17 1366.29 1722)">Microsecpmds</text></g><g clip-path="url(#clip35)"><text fill="#595959" font-family="Calibri,Calibri_MSFontService,sans-serif" font-weight="400" font-size="46" transform="matrix(1 0 0 1 3345.4 2545)">Bytes</text></g><g clip-path="url(#clip36)"><text fill="#595959" font-family="Calibri,Calibri_MSFontService,sans-serif" font-weight="400" font-size="64" transform="matrix(1 0 0 1 3225.9 687)">AES Encryption Time</text></g><g clip-path="url(#clip37)"><path d="M5393 1662C5393 1668.07 5388.08 1673 5382 1673 5375.92 1673 5371 1668.07 5371 1662 5371 1655.92 5375.92 1651 5382 1651 5388.08 1651 5393 1655.92 5393 1662Z" stroke="#4472C4" stroke-width="3.4375" stroke-linejoin="round" stroke-miterlimit="10" fill="#4472C4"/></g><g clip-path="url(#clip38)"><text fill="#595959" font-family="Calibri,Calibri_MSFontService,sans-serif" font-weight="400" font-size="41" transform="matrix(1 0 0 1 5403.93 1674)">Encryption Time</text></g><rect x="1265.5" y="591.5" width="4458" height="2023" stroke="#D9D9D9" stroke-width="3.4375" stroke-linejoin="round" stroke-miterlimit="10" fill="none"/></g></svg>