<svg width="3238" height="2026" xmlns="http://www.w3.org/2000/svg" xmlns:xlink="http://www.w3.org/1999/xlink" overflow="hidden"><defs><clipPath id="clip0"><rect x="1264" y="590" width="3238" height="2026"/></clipPath><clipPath id="clip1"><rect x="1264" y="591" width="3235" height="2023"/></clipPath><clipPath id="clip2"><rect x="1264" y="591" width="3235" height="2023"/></clipPath><clipPath id="clip3"><rect x="1472" y="761" width="2370" height="1649"/></clipPath><clipPath id="clip4"><rect x="1472" y="761" width="2370" height="1649"/></clipPath><clipPath id="clip5"><rect x="1472" y="761" width="2370" height="1649"/></clipPath><clipPath id="clip6"><rect x="1472" y="761" width="2370" height="1649"/></clipPath><clipPath id="clip7"><rect x="1472" y="761" width="2370" height="1649"/></clipPath><clipPath id="clip8"><rect x="1472" y="761" width="2370" height="1649"/></clipPath><clipPath id="clip9"><rect x="1472" y="761" width="2370" height="1649"/></clipPath><clipPath id="clip10"><rect x="1264" y="591" width="3235" height="2023"/></clipPath><clipPath id="clip11"><rect x="1264" y="591" width="3235" height="2023"/></clipPath><clipPath id="clip12"><rect x="1264" y="591" width="3235" height="2023"/></clipPath><clipPath id="clip13"><rect x="1264" y="591" width="3235" height="2023"/></clipPath><clipPath id="clip14"><rect x="1264" y="591" width="3235" height="2023"/></clipPath><clipPath id="clip15"><rect x="1264" y="591" width="3235" height="2023"/></clipPath><clipPath id="clip16"><rect x="1264" y="591" width="3235" height="2023"/></clipPath><clipPath id="clip17"><rect x="1264" y="591" width="3235" height="2023"/></clipPath><clipPath id="clip18"><rect x="1472" y="761" width="2367" height="1649"/></clipPath><clipPath id="clip19"><rect x="1264" y="591" width="3235" height="2023"/></clipPath><clipPath id="clip20"><rect x="1264" y="591" width="3235" height="2023"/></clipPath><clipPath id="clip21"><rect x="1264" y="591" width="3235" height="2023"/></clipPath><clipPath id="clip22"><rect x="1264" y="591" width="3235" height="2023"/></clipPath><clipPath id="clip23"><rect x="1264" y="591" width="3235" height="2023"/></clipPath><clipPath id="clip24"><rect x="1264" y="591" width="3235" height="2023"/></clipPath><clipPath id="clip25"><rect x="1264" y="591" width="3235" height="2023"/></clipPath><clipPath id="clip26"><rect x="1264" y="591" width="3235" height="2023"/></clipPath><clipPath id="clip27"><rect x="1264" y="591" width="3235" height="2023"/></clipPath><clipPath id="clip28"><rect x="1264" y="591" width="3235" height="2023"/></clipPath><clipPath id="clip29"><rect x="1264" y="591" width="3235" height="2023"/></clipPath><clipPath id="clip30"><rect x="1264" y="591" width="3235" height="2023"/></clipPath><clipPath id="clip31"><rect x="1264" y="591" width="3235" height="2023"/></clipPath><clipPath id="clip32"><rect x="1264" y="591" width="3235" height="2023"/></clipPath><clipPath id="clip33"><rect x="1264" y="591" width="3235" height="2023"/></clipPath><clipPath id="clip34"><rect x="1264" y="591" width="3235" height="2023"/></clipPath><clipPath id="clip35"><rect x="1264" y="591" width="3235" height="2023"/></clipPath><clipPath id="clip36"><rect x="1264" y="591" width="3235" height="2023"/></clipPath><clipPath id="clip37"><rect x="1264" y="591" width="3235" height="2023"/></clipPath><clipPath id="clip38"><rect x="1264" y="591" width="3235" height="2023"/></clipPath><clipPath id="clip39"><rect x="1264" y="591" width="3235" height="2023"/></clipPath><clipPath id="clip40"><rect x="1264" y="591" width="3235" height="2023"/></clipPath><clipPath id="clip41"><rect x="1264" y="591" width="3235" height="2023"/></clipPath><clipPath id="clip42"><rect x="1264" y="591" width="3235" height="2023"/></clipPath><clipPath id="clip43"><rect x="1264" y="591" width="3235" height="2023"/></clipPath></defs><g clip-path="url(#clip0)" transform="translate(-1264 -590)"><rect x="1265" y="591" width="3235" height="2023" fill="#FFFFFF"/><g clip-path="url(#clip1)"><path d="M1472.5 2245.57 3839.5 2245.57M1472.5 2080.57 3839.5 2080.57M1472.5 1915.56 3839.5 1915.56M1472.5 1750.56 3839.5 1750.56M1472.5 1585.55 3839.5 1585.55M1472.5 1420.55 3839.5 1420.55M1472.5 1256.54 3839.5 1256.54M1472.5 1091.54 3839.5 1091.54M1472.5 926.531 3839.5 926.531M1472.5 761.5 3839.5 761.5" stroke="#D9D9D9" stroke-width="3.4375" stroke-linejoin="round" stroke-miterlimit="10" fill="none"/></g><g clip-path="url(#clip2)"><path d="M1472.5 2410.5 3839.5 2410.5" stroke="#D9D9D9" stroke-width="3.4375" stroke-linejoin="round" stroke-miterlimit="10" fill="none" fill-rule="evenodd"/></g><g clip-path="url(#clip3)"><path d="M1641.55 1057.53 1641.55 1207.5M1641.55 1057.53 1641.55 908.5M1630.5 1207.5 1651.5 1207.5M1630.5 908.5 1651.5 908.5" stroke="#595959" stroke-width="3.4375" stroke-linejoin="round" stroke-miterlimit="10" fill="none"/></g><g clip-path="url(#clip4)"><path d="M1979.57 1065.54 1979.57 1199.5M1979.57 1065.54 1979.57 932.5M1968.5 1199.5 1989.5 1199.5M1968.5 932.5 1989.5 932.5" stroke="#595959" stroke-width="3.4375" stroke-linejoin="round" stroke-miterlimit="10" fill="none"/></g><g clip-path="url(#clip5)"><path d="M2317.58 1065.54 2317.58 1191.5M2317.58 1065.54 2317.58 939.5M2307.5 1191.5 2327.5 1191.5M2307.5 939.5 2327.5 939.5" stroke="#595959" stroke-width="3.4375" stroke-linejoin="round" stroke-miterlimit="10" fill="none"/></g><g clip-path="url(#clip6)"><path d="M2655.59 1057.53 2655.59 1217.5M2655.59 1057.53 2655.59 898.5M2645.5 1217.5 2665.5 1217.5M2645.5 898.5 2665.5 898.5" stroke="#595959" stroke-width="3.4375" stroke-linejoin="round" stroke-miterlimit="10" fill="none"/></g><g clip-path="url(#clip7)"><path d="M2993.6 1069.54 2993.6 1189.5M2993.6 1069.54 2993.6 949.5M2983.5 1189.5 3004.5 1189.5M2983.5 949.5 3004.5 949.5" stroke="#595959" stroke-width="3.4375" stroke-linejoin="round" stroke-miterlimit="10" fill="none"/></g><g clip-path="url(#clip8)"><path d="M3331.61 1049.53 3331.61 1144.5M3331.61 1049.53 3331.61 955.5M3321.5 1144.5 3342.5 1144.5M3321.5 955.5 3342.5 955.5" stroke="#595959" stroke-width="3.4375" stroke-linejoin="round" stroke-miterlimit="10" fill="none"/></g><g clip-path="url(#clip9)"><path d="M3670.62 1057.53 3670.62 1175.5M3670.62 1057.53 3670.62 939.5M3659.5 1175.5 3680.5 1175.5M3659.5 939.5 3680.5 939.5" stroke="#595959" stroke-width="3.4375" stroke-linejoin="round" stroke-miterlimit="10" fill="none"/></g><g clip-path="url(#clip10)"><path d="M1652.5 1057.75C1652.5 1063.82 1647.57 1068.75 1641.5 1068.75 1635.42 1068.75 1630.5 1063.82 1630.5 1057.75 1630.5 1051.67 1635.42 1046.75 1641.5 1046.75 1647.57 1046.75 1652.5 1051.67 1652.5 1057.75Z" stroke="#4472C4" stroke-width="3.4375" stroke-linejoin="round" stroke-miterlimit="10" fill="#4472C4"/><path d="M1990.5 1065.75C1990.5 1071.82 1985.57 1076.75 1979.5 1076.75 1973.42 1076.75 1968.5 1071.82 1968.5 1065.75 1968.5 1059.67 1973.42 1054.75 1979.5 1054.75 1985.57 1054.75 1990.5 1059.67 1990.5 1065.75Z" stroke="#4472C4" stroke-width="3.4375" stroke-linejoin="round" stroke-miterlimit="10" fill="#4472C4"/><path d="M2328.5 1065.75C2328.5 1071.82 2323.57 1076.75 2317.5 1076.75 2311.42 1076.75 2306.5 1071.82 2306.5 1065.75 2306.5 1059.67 2311.42 1054.75 2317.5 1054.75 2323.57 1054.75 2328.5 1059.67 2328.5 1065.75Z" stroke="#4472C4" stroke-width="3.4375" stroke-linejoin="round" stroke-miterlimit="10" fill="#4472C4"/><path d="M2666.5 1057.75C2666.5 1063.82 2661.57 1068.75 2655.5 1068.75 2649.42 1068.75 2644.5 1063.82 2644.5 1057.75 2644.5 1051.67 2649.42 1046.75 2655.5 1046.75 2661.57 1046.75 2666.5 1051.67 2666.5 1057.75Z" stroke="#4472C4" stroke-width="3.4375" stroke-linejoin="round" stroke-miterlimit="10" fill="#4472C4"/><path d="M3004.5 1069.75C3004.5 1075.82 2999.57 1080.75 2993.5 1080.75 2987.42 1080.75 2982.5 1075.82 2982.5 1069.75 2982.5 1063.67 2987.42 1058.75 2993.5 1058.75 2999.57 1058.75 3004.5 1063.67 3004.5 1069.75Z" stroke="#4472C4" stroke-width="3.4375" stroke-linejoin="round" stroke-miterlimit="10" fill="#4472C4"/><path d="M3343.5 1050.75C3343.5 1056.82 3338.57 1061.75 3332.5 1061.75 3326.42 1061.75 3321.5 1056.82 3321.5 1050.75 3321.5 1044.67 3326.42 1039.75 3332.5 1039.75 3338.57 1039.75 3343.5 1044.67 3343.5 1050.75Z" stroke="#4472C4" stroke-width="3.4375" stroke-linejoin="round" stroke-miterlimit="10" fill="#4472C4"/><path d="M3681.5 1057.75C3681.5 1063.82 3676.57 1068.75 3670.5 1068.75 3664.42 1068.75 3659.5 1063.82 3659.5 1057.75 3659.5 1051.67 3664.42 1046.75 3670.5 1046.75 3676.57 1046.75 3681.5 1051.67 3681.5 1057.75Z" stroke="#4472C4" stroke-width="3.4375" stroke-linejoin="round" stroke-miterlimit="10" fill="#4472C4"/></g><g clip-path="url(#clip11)"><text fill="#404040" font-family="Calibri,Calibri_MSFontService,sans-serif" font-weight="400" font-size="41" transform="matrix(1 0 0 1 1680.09 1072)">41.00799561</text></g><g clip-path="url(#clip12)"><text fill="#404040" font-family="Calibri,Calibri_MSFontService,sans-serif" font-weight="400" font-size="41" transform="matrix(1 0 0 1 2018.27 1080)">40.76957703</text></g><g clip-path="url(#clip13)"><text fill="#404040" font-family="Calibri,Calibri_MSFontService,sans-serif" font-weight="400" font-size="41" transform="matrix(1 0 0 1 2356.44 1080)">40.76957703</text></g><g clip-path="url(#clip14)"><text fill="#404040" font-family="Calibri,Calibri_MSFontService,sans-serif" font-weight="400" font-size="41" transform="matrix(1 0 0 1 2694.62 1072)">41.00799561</text></g><g clip-path="url(#clip15)"><text fill="#404040" font-family="Calibri,Calibri_MSFontService,sans-serif" font-weight="400" font-size="41" transform="matrix(1 0 0 1 3032.79 1084)">40.65036774</text></g><g clip-path="url(#clip16)"><text fill="#404040" font-family="Calibri,Calibri_MSFontService,sans-serif" font-weight="400" font-size="41" transform="matrix(1 0 0 1 3370.97 1064)">41.24641418</text></g><g clip-path="url(#clip17)"><text fill="#404040" font-family="Calibri,Calibri_MSFontService,sans-serif" font-weight="400" font-size="41" transform="matrix(1 0 0 1 3709.14 1072)">41.00799561</text></g><g clip-path="url(#clip18)"><path d="M0 0 2029 6.0002" stroke="#4472C4" stroke-width="6.875" stroke-linecap="round" stroke-linejoin="round" stroke-miterlimit="10" stroke-dasharray="0 13.75" fill="none" fill-rule="evenodd" transform="matrix(1 0 0 -1 1641.5 1063.5)"/></g><g clip-path="url(#clip19)"><text fill="#595959" font-family="Calibri,Calibri_MSFontService,sans-serif" font-weight="400" font-size="41" transform="matrix(1 0 0 1 1412.88 2422)">0</text></g><g clip-path="url(#clip20)"><text fill="#595959" font-family="Calibri,Calibri_MSFontService,sans-serif" font-weight="400" font-size="41" transform="matrix(1 0 0 1 1412.88 2257)">5</text></g><g clip-path="url(#clip21)"><text fill="#595959" font-family="Calibri,Calibri_MSFontService,sans-serif" font-weight="400" font-size="41" transform="matrix(1 0 0 1 1391.98 2092)">10</text></g><g clip-path="url(#clip22)"><text fill="#595959" font-family="Calibri,Calibri_MSFontService,sans-serif" font-weight="400" font-size="41" transform="matrix(1 0 0 1 1391.98 1927)">15</text></g><g clip-path="url(#clip23)"><text fill="#595959" font-family="Calibri,Calibri_MSFontService,sans-serif" font-weight="400" font-size="41" transform="matrix(1 0 0 1 1391.98 1762)">20</text></g><g clip-path="url(#clip24)"><text fill="#595959" font-family="Calibri,Calibri_MSFontService,sans-serif" font-weight="400" font-size="41" transform="matrix(1 0 0 1 1391.98 1598)">25</text></g><g clip-path="url(#clip25)"><text fill="#595959" font-family="Calibri,Calibri_MSFontService,sans-serif" font-weight="400" font-size="41" transform="matrix(1 0 0 1 1391.98 1433)">30</text></g><g clip-path="url(#clip26)"><text fill="#595959" font-family="Calibri,Calibri_MSFontService,sans-serif" font-weight="400" font-size="41" transform="matrix(1 0 0 1 1391.98 1268)">35</text></g><g clip-path="url(#clip27)"><text fill="#595959" font-family="Calibri,Calibri_MSFontService,sans-serif" font-weight="400" font-size="41" transform="matrix(1 0 0 1 1391.98 1103)">40</text></g><g clip-path="url(#clip28)"><text fill="#595959" font-family="Calibri,Calibri_MSFontService,sans-serif" font-weight="400" font-size="41" transform="matrix(1 0 0 1 1391.98 938)">45</text></g><g clip-path="url(#clip29)"><text fill="#595959" font-family="Calibri,Calibri_MSFontService,sans-serif" font-weight="400" font-size="41" transform="matrix(1 0 0 1 1391.98 773)">50</text></g><g clip-path="url(#clip30)"><text fill="#595959" font-family="Calibri,Calibri_MSFontService,sans-serif" font-weight="400" font-size="41" transform="matrix(1 0 0 1 1630.69 2476)">2</text></g><g clip-path="url(#clip31)"><text fill="#595959" font-family="Calibri,Calibri_MSFontService,sans-serif" font-weight="400" font-size="41" transform="matrix(1 0 0 1 1968.86 2476)">4</text></g><g clip-path="url(#clip32)"><text fill="#595959" font-family="Calibri,Calibri_MSFontService,sans-serif" font-weight="400" font-size="41" transform="matrix(1 0 0 1 2307.04 2476)">8</text></g><g clip-path="url(#clip33)"><text fill="#595959" font-family="Calibri,Calibri_MSFontService,sans-serif" font-weight="400" font-size="41" transform="matrix(1 0 0 1 2634.76 2476)">16</text></g><g clip-path="url(#clip34)"><text fill="#595959" font-family="Calibri,Calibri_MSFontService,sans-serif" font-weight="400" font-size="41" transform="matrix(1 0 0 1 2972.94 2476)">32</text></g><g clip-path="url(#clip35)"><text fill="#595959" font-family="Calibri,Calibri_MSFontService,sans-serif" font-weight="400" font-size="41" transform="matrix(1 0 0 1 3311.11 2476)">64</text></g><g clip-path="url(#clip36)"><text fill="#595959" font-family="Calibri,Calibri_MSFontService,sans-serif" font-weight="400" font-size="41" transform="matrix(1 0 0 1 3638.83 2476)">128</text></g><g clip-path="url(#clip37)"><text fill="#595959" font-family="Calibri,Calibri_MSFontService,sans-serif" font-weight="400" font-size="46" transform="matrix(6.12323e-17 -1 1 6.12323e-17 1366.29 1722)">Microsecpmds</text></g><g clip-path="url(#clip38)"><text fill="#595959" font-family="Calibri,Calibri_MSFontService,sans-serif" font-weight="400" font-size="46" transform="matrix(1 0 0 1 2604.79 2545)">Bytes</text></g><g clip-path="url(#clip39)"><text fill="#595959" font-family="Calibri,Calibri_MSFontService,sans-serif" font-weight="400" font-size="64" transform="matrix(1 0 0 1 2669.94 687)">Encryption Time</text></g><g clip-path="url(#clip40)"><path d="M3983 1623C3983 1629.07 3978.07 1634 3972 1634 3965.92 1634 3961 1629.07 3961 1623 3961 1616.92 3965.92 1612 3972 1612 3978.07 1612 3983 1616.92 3983 1623Z" stroke="#4472C4" stroke-width="3.4375" stroke-linejoin="round" stroke-miterlimit="10" fill="#4472C4"/></g><g clip-path="url(#clip41)"><text fill="#595959" font-family="Calibri,Calibri_MSFontService,sans-serif" font-weight="400" font-size="41" transform="matrix(1 0 0 1 4042.66 1635)">Encryption Time</text></g><g clip-path="url(#clip42)"><path d="M3914.5 1701.5 4029.5 1701.5" stroke="#4472C4" stroke-width="6.875" stroke-linecap="round" stroke-linejoin="round" stroke-miterlimit="10" stroke-dasharray="0 13.75" fill="none" fill-rule="evenodd"/></g><g clip-path="url(#clip43)"><text fill="#595959" font-family="Calibri,Calibri_MSFontService,sans-serif" font-weight="400" font-size="41" transform="matrix(1 0 0 1 4042.66 1713)">Linear (Encryption Time)</text></g><rect x="1265.5" y="591.5" width="3235" height="2023" stroke="#D9D9D9" stroke-width="3.4375" stroke-linejoin="round" stroke-miterlimit="10" fill="none"/></g></svg>