<svg width="4461" height="2026" xmlns="http://www.w3.org/2000/svg" xmlns:xlink="http://www.w3.org/1999/xlink" overflow="hidden"><defs><clipPath id="clip0"><rect x="1264" y="590" width="4461" height="2026"/></clipPath><clipPath id="clip1"><rect x="1264" y="591" width="4459" height="2023"/></clipPath><clipPath id="clip2"><rect x="1264" y="591" width="4459" height="2023"/></clipPath><clipPath id="clip3"><rect x="1472" y="761" width="3831" height="1649"/></clipPath><clipPath id="clip4"><rect x="1472" y="761" width="3831" height="1649"/></clipPath><clipPath id="clip5"><rect x="1472" y="761" width="3831" height="1649"/></clipPath><clipPath id="clip6"><rect x="1472" y="761" width="3831" height="1649"/></clipPath><clipPath id="clip7"><rect x="1472" y="761" width="3831" height="1649"/></clipPath><clipPath id="clip8"><rect x="1472" y="761" width="3831" height="1649"/></clipPath><clipPath id="clip9"><rect x="1472" y="761" width="3831" height="1649"/></clipPath><clipPath id="clip10"><rect x="1264" y="591" width="4459" height="2023"/></clipPath><clipPath id="clip11"><rect x="1264" y="591" width="4459" height="2023"/></clipPath><clipPath id="clip12"><rect x="1264" y="591" width="4459" height="2023"/></clipPath><clipPath id="clip13"><rect x="1264" y="591" width="4459" height="2023"/></clipPath><clipPath id="clip14"><rect x="1264" y="591" width="4459" height="2023"/></clipPath><clipPath id="clip15"><rect x="1264" y="591" width="4459" height="2023"/></clipPath><clipPath id="clip16"><rect x="1264" y="591" width="4459" height="2023"/></clipPath><clipPath id="clip17"><rect x="1264" y="591" width="4459" height="2023"/></clipPath><clipPath id="clip18"><rect x="1264" y="591" width="4459" height="2023"/></clipPath><clipPath id="clip19"><rect x="1264" y="591" width="4459" height="2023"/></clipPath><clipPath id="clip20"><rect x="1264" y="591" width="4459" height="2023"/></clipPath><clipPath id="clip21"><rect x="1264" y="591" width="4459" height="2023"/></clipPath><clipPath id="clip22"><rect x="1264" y="591" width="4459" height="2023"/></clipPath><clipPath id="clip23"><rect x="1264" y="591" width="4459" height="2023"/></clipPath><clipPath id="clip24"><rect x="1264" y="591" width="4459" height="2023"/></clipPath><clipPath id="clip25"><rect x="1264" y="591" width="4459" height="2023"/></clipPath><clipPath id="clip26"><rect x="1264" y="591" width="4459" height="2023"/></clipPath><clipPath id="clip27"><rect x="1264" y="591" width="4459" height="2023"/></clipPath><clipPath id="clip28"><rect x="1264" y="591" width="4459" height="2023"/></clipPath><clipPath id="clip29"><rect x="1264" y="591" width="4459" height="2023"/></clipPath><clipPath id="clip30"><rect x="1264" y="591" width="4459" height="2023"/></clipPath><clipPath id="clip31"><rect x="1264" y="591" width="4459" height="2023"/></clipPath><clipPath id="clip32"><rect x="1264" y="591" width="4459" height="2023"/></clipPath><clipPath id="clip33"><rect x="1264" y="591" width="4459" height="2023"/></clipPath><clipPath id="clip34"><rect x="1264" y="591" width="4459" height="2023"/></clipPath><clipPath id="clip35"><rect x="1264" y="591" width="4459" height="2023"/></clipPath><clipPath id="clip36"><rect x="1264" y="591" width="4459" height="2023"/></clipPath></defs><g clip-path="url(#clip0)" transform="translate(-1264 -590)"><rect x="1265" y="591" width="4458" height="2023" fill="#FFFFFF"/><g clip-path="url(#clip1)"><path d="M1472.5 2135.57 5299.5 2135.57M1472.5 1860.56 5299.5 1860.56M1472.5 1585.55 5299.5 1585.55M1472.5 1311.54 5299.5 1311.54M1472.5 1036.53 5299.5 1036.53M1472.5 761.5 5299.5 761.5" stroke="#D9D9D9" stroke-width="3.4375" stroke-linejoin="round" stroke-miterlimit="10" fill="none"/></g><g clip-path="url(#clip2)"><path d="M1472.5 2410.5 5299.5 2410.5" stroke="#D9D9D9" stroke-width="3.4375" stroke-linejoin="round" stroke-miterlimit="10" fill="none" fill-rule="evenodd"/></g><g clip-path="url(#clip3)"><path d="M1745.56 1524.55 1745.56 1810.5M1745.56 1524.55 1745.56 1237.5M1735.5 1810.5 1755.5 1810.5M1735.5 1237.5 1755.5 1237.5" stroke="#595959" stroke-width="3.4375" stroke-linejoin="round" stroke-miterlimit="10" fill="none"/></g><g clip-path="url(#clip4)"><path d="M2292.58 1320.54 2292.58 1688.5M2292.58 1320.54 2292.58 952.5M2281.5 1688.5 2302.5 1688.5M2281.5 952.5 2302.5 952.5" stroke="#595959" stroke-width="3.4375" stroke-linejoin="round" stroke-miterlimit="10" fill="none"/></g><g clip-path="url(#clip5)"><path d="M2838.59 1500.55 2838.59 1846.5M2838.59 1500.55 2838.59 1154.5M2828.5 1846.5 2849.5 1846.5M2828.5 1154.5 2849.5 1154.5" stroke="#595959" stroke-width="3.4375" stroke-linejoin="round" stroke-miterlimit="10" fill="none"/></g><g clip-path="url(#clip6)"><path d="M3385.61 1572.55 3385.61 1747.5M3385.61 1572.55 3385.61 1397.5M3375.5 1747.5 3396.5 1747.5M3375.5 1397.5 3396.5 1397.5" stroke="#595959" stroke-width="3.4375" stroke-linejoin="round" stroke-miterlimit="10" fill="none"/></g><g clip-path="url(#clip7)"><path d="M3932.63 1404.55 3932.63 1629.5M3932.63 1404.55 3932.63 1180.5M3922.5 1629.5 3942.5 1629.5M3922.5 1180.5 3942.5 1180.5" stroke="#595959" stroke-width="3.4375" stroke-linejoin="round" stroke-miterlimit="10" fill="none"/></g><g clip-path="url(#clip8)"><path d="M4479.65 1388.55 4479.65 1642.5M4479.65 1388.55 4479.65 1134.5M4469.5 1642.5 4489.5 1642.5M4469.5 1134.5 4489.5 1134.5" stroke="#595959" stroke-width="3.4375" stroke-linejoin="round" stroke-miterlimit="10" fill="none"/></g><g clip-path="url(#clip9)"><path d="M5026.67 1697.56 5026.67 1805.5M5026.67 1697.56 5026.67 1588.5M5015.5 1805.5 5036.5 1805.5M5015.5 1588.5 5036.5 1588.5" stroke="#595959" stroke-width="3.4375" stroke-linejoin="round" stroke-miterlimit="10" fill="none"/></g><g clip-path="url(#clip10)"><path d="M1756.5 1524.75C1756.5 1530.82 1751.57 1535.75 1745.5 1535.75 1739.42 1535.75 1734.5 1530.82 1734.5 1524.75 1734.5 1518.67 1739.42 1513.75 1745.5 1513.75 1751.57 1513.75 1756.5 1518.67 1756.5 1524.75Z" stroke="#4472C4" stroke-width="3.4375" stroke-linejoin="round" stroke-miterlimit="10" fill="#4472C4"/><path d="M2303.5 1320.75C2303.5 1326.82 2298.57 1331.75 2292.5 1331.75 2286.42 1331.75 2281.5 1326.82 2281.5 1320.75 2281.5 1314.68 2286.42 1309.75 2292.5 1309.75 2298.57 1309.75 2303.5 1314.68 2303.5 1320.75Z" stroke="#4472C4" stroke-width="3.4375" stroke-linejoin="round" stroke-miterlimit="10" fill="#4472C4"/><path d="M2850.5 1500.75C2850.5 1506.82 2845.57 1511.75 2839.5 1511.75 2833.42 1511.75 2828.5 1506.82 2828.5 1500.75 2828.5 1494.67 2833.42 1489.75 2839.5 1489.75 2845.57 1489.75 2850.5 1494.67 2850.5 1500.75Z" stroke="#4472C4" stroke-width="3.4375" stroke-linejoin="round" stroke-miterlimit="10" fill="#4472C4"/><path d="M3396.5 1572.75C3396.5 1578.82 3391.57 1583.75 3385.5 1583.75 3379.42 1583.75 3374.5 1578.82 3374.5 1572.75 3374.5 1566.68 3379.42 1561.75 3385.5 1561.75 3391.57 1561.75 3396.5 1566.68 3396.5 1572.75Z" stroke="#4472C4" stroke-width="3.4375" stroke-linejoin="round" stroke-miterlimit="10" fill="#4472C4"/><path d="M3943.5 1404.75C3943.5 1410.82 3938.57 1415.75 3932.5 1415.75 3926.42 1415.75 3921.5 1410.82 3921.5 1404.75 3921.5 1398.67 3926.42 1393.75 3932.5 1393.75 3938.57 1393.75 3943.5 1398.67 3943.5 1404.75Z" stroke="#4472C4" stroke-width="3.4375" stroke-linejoin="round" stroke-miterlimit="10" fill="#4472C4"/><path d="M4490.5 1388.75C4490.5 1394.82 4485.57 1399.75 4479.5 1399.75 4473.42 1399.75 4468.5 1394.82 4468.5 1388.75 4468.5 1382.67 4473.42 1377.75 4479.5 1377.75 4485.57 1377.75 4490.5 1382.67 4490.5 1388.75Z" stroke="#4472C4" stroke-width="3.4375" stroke-linejoin="round" stroke-miterlimit="10" fill="#4472C4"/><path d="M5037.5 1697.75C5037.5 1703.82 5032.57 1708.75 5026.5 1708.75 5020.42 1708.75 5015.5 1703.82 5015.5 1697.75 5015.5 1691.67 5020.42 1686.75 5026.5 1686.75 5032.57 1686.75 5037.5 1691.67 5037.5 1697.75Z" stroke="#4472C4" stroke-width="3.4375" stroke-linejoin="round" stroke-miterlimit="10" fill="#4472C4"/></g><g clip-path="url(#clip11)"><text fill="#404040" font-family="Calibri,Calibri_MSFontService,sans-serif" font-weight="400" font-size="41" transform="matrix(1 0 0 1 1784.4 1538)">41.22495651</text></g><g clip-path="url(#clip12)"><text fill="#404040" font-family="Calibri,Calibri_MSFontService,sans-serif" font-weight="400" font-size="41" transform="matrix(1 0 0 1 2331.2 1334)">41.96643829</text></g><g clip-path="url(#clip13)"><text fill="#404040" font-family="Calibri,Calibri_MSFontService,sans-serif" font-weight="400" font-size="41" transform="matrix(1 0 0 1 2877.99 1514)">41.3107872</text></g><g clip-path="url(#clip14)"><text fill="#404040" font-family="Calibri,Calibri_MSFontService,sans-serif" font-weight="400" font-size="41" transform="matrix(1 0 0 1 3424.79 1586)">41.04852676</text></g><g clip-path="url(#clip15)"><text fill="#404040" font-family="Calibri,Calibri_MSFontService,sans-serif" font-weight="400" font-size="41" transform="matrix(1 0 0 1 3971.58 1419)">41.65887833</text></g><g clip-path="url(#clip16)"><text fill="#404040" font-family="Calibri,Calibri_MSFontService,sans-serif" font-weight="400" font-size="41" transform="matrix(1 0 0 1 4518.37 1402)">41.71848297</text></g><g clip-path="url(#clip17)"><text fill="#404040" font-family="Calibri,Calibri_MSFontService,sans-serif" font-weight="400" font-size="41" transform="matrix(1 0 0 1 5065.17 1711)">40.59553146</text></g><g clip-path="url(#clip18)"><text fill="#595959" font-family="Calibri,Calibri_MSFontService,sans-serif" font-weight="400" font-size="41" transform="matrix(1 0 0 1 1391.98 2422)">38</text></g><g clip-path="url(#clip19)"><text fill="#595959" font-family="Calibri,Calibri_MSFontService,sans-serif" font-weight="400" font-size="41" transform="matrix(1 0 0 1 1391.98 2147)">39</text></g><g clip-path="url(#clip20)"><text fill="#595959" font-family="Calibri,Calibri_MSFontService,sans-serif" font-weight="400" font-size="41" transform="matrix(1 0 0 1 1391.98 1872)">40</text></g><g clip-path="url(#clip21)"><text fill="#595959" font-family="Calibri,Calibri_MSFontService,sans-serif" font-weight="400" font-size="41" transform="matrix(1 0 0 1 1391.98 1598)">41</text></g><g clip-path="url(#clip22)"><text fill="#595959" font-family="Calibri,Calibri_MSFontService,sans-serif" font-weight="400" font-size="41" transform="matrix(1 0 0 1 1391.98 1323)">42</text></g><g clip-path="url(#clip23)"><text fill="#595959" font-family="Calibri,Calibri_MSFontService,sans-serif" font-weight="400" font-size="41" transform="matrix(1 0 0 1 1391.98 1048)">43</text></g><g clip-path="url(#clip24)"><text fill="#595959" font-family="Calibri,Calibri_MSFontService,sans-serif" font-weight="400" font-size="41" transform="matrix(1 0 0 1 1391.98 773)">44</text></g><g clip-path="url(#clip25)"><text fill="#595959" font-family="Calibri,Calibri_MSFontService,sans-serif" font-weight="400" font-size="41" transform="matrix(1 0 0 1 1735 2476)">2</text></g><g clip-path="url(#clip26)"><text fill="#595959" font-family="Calibri,Calibri_MSFontService,sans-serif" font-weight="400" font-size="41" transform="matrix(1 0 0 1 2281.79 2476)">4</text></g><g clip-path="url(#clip27)"><text fill="#595959" font-family="Calibri,Calibri_MSFontService,sans-serif" font-weight="400" font-size="41" transform="matrix(1 0 0 1 2828.58 2476)">8</text></g><g clip-path="url(#clip28)"><text fill="#595959" font-family="Calibri,Calibri_MSFontService,sans-serif" font-weight="400" font-size="41" transform="matrix(1 0 0 1 3364.93 2476)">16</text></g><g clip-path="url(#clip29)"><text fill="#595959" font-family="Calibri,Calibri_MSFontService,sans-serif" font-weight="400" font-size="41" transform="matrix(1 0 0 1 3911.72 2476)">32</text></g><g clip-path="url(#clip30)"><text fill="#595959" font-family="Calibri,Calibri_MSFontService,sans-serif" font-weight="400" font-size="41" transform="matrix(1 0 0 1 4458.52 2476)">64</text></g><g clip-path="url(#clip31)"><text fill="#595959" font-family="Calibri,Calibri_MSFontService,sans-serif" font-weight="400" font-size="41" transform="matrix(1 0 0 1 4994.86 2476)">128</text></g><g clip-path="url(#clip32)"><text fill="#595959" font-family="Calibri,Calibri_MSFontService,sans-serif" font-weight="400" font-size="46" transform="matrix(6.12323e-17 -1 1 6.12323e-17 1366.29 1722)">Microsecpmds</text></g><g clip-path="url(#clip33)"><text fill="#595959" font-family="Calibri,Calibri_MSFontService,sans-serif" font-weight="400" font-size="46" transform="matrix(1 0 0 1 3334.95 2545)">Bytes</text></g><g clip-path="url(#clip34)"><text fill="#595959" font-family="Calibri,Calibri_MSFontService,sans-serif" font-weight="400" font-size="64" transform="matrix(1 0 0 1 3224.5 687)">RSA Encryption Time</text></g><g clip-path="url(#clip35)"><path d="M5393 1662C5393 1668.07 5388.08 1673 5382 1673 5375.92 1673 5371 1668.07 5371 1662 5371 1655.92 5375.92 1651 5382 1651 5388.08 1651 5393 1655.92 5393 1662Z" stroke="#4472C4" stroke-width="3.4375" stroke-linejoin="round" stroke-miterlimit="10" fill="#4472C4"/></g><g clip-path="url(#clip36)"><text fill="#595959" font-family="Calibri,Calibri_MSFontService,sans-serif" font-weight="400" font-size="41" transform="matrix(1 0 0 1 5403.93 1674)">Encryption Time</text></g><rect x="1265.5" y="591.5" width="4458" height="2023" stroke="#D9D9D9" stroke-width="3.4375" stroke-linejoin="round" stroke-miterlimit="10" fill="none"/></g></svg>