<svg width="4461" height="2026" xmlns="http://www.w3.org/2000/svg" xmlns:xlink="http://www.w3.org/1999/xlink" overflow="hidden"><defs><clipPath id="clip0"><rect x="1264" y="590" width="4461" height="2026"/></clipPath><clipPath id="clip1"><rect x="1264" y="591" width="4459" height="2023"/></clipPath><clipPath id="clip2"><rect x="1264" y="591" width="4459" height="2023"/></clipPath><clipPath id="clip3"><rect x="1492" y="761" width="3806" height="1649"/></clipPath><clipPath id="clip4"><rect x="1492" y="761" width="3806" height="1649"/></clipPath><clipPath id="clip5"><rect x="1492" y="761" width="3806" height="1649"/></clipPath><clipPath id="clip6"><rect x="1492" y="761" width="3806" height="1649"/></clipPath><clipPath id="clip7"><rect x="1492" y="761" width="3806" height="1649"/></clipPath><clipPath id="clip8"><rect x="1492" y="761" width="3806" height="1649"/></clipPath><clipPath id="clip9"><rect x="1492" y="761" width="3806" height="1649"/></clipPath><clipPath id="clip10"><rect x="1264" y="591" width="4459" height="2023"/></clipPath><clipPath id="clip11"><rect x="1264" y="591" width="4459" height="2023"/></clipPath><clipPath id="clip12"><rect x="1264" y="591" width="4459" height="2023"/></clipPath><clipPath id="clip13"><rect x="1264" y="591" width="4459" height="2023"/></clipPath><clipPath id="clip14"><rect x="1264" y="591" width="4459" height="2023"/></clipPath><clipPath id="clip15"><rect x="1264" y="591" width="4459" height="2023"/></clipPath><clipPath id="clip16"><rect x="1264" y="591" width="4459" height="2023"/></clipPath><clipPath id="clip17"><rect x="1264" y="591" width="4459" height="2023"/></clipPath><clipPath id="clip18"><rect x="1264" y="591" width="4459" height="2023"/></clipPath><clipPath id="clip19"><rect x="1264" y="591" width="4459" height="2023"/></clipPath><clipPath id="clip20"><rect x="1264" y="591" width="4459" height="2023"/></clipPath><clipPath id="clip21"><rect x="1264" y="591" width="4459" height="2023"/></clipPath><clipPath id="clip22"><rect x="1264" y="591" width="4459" height="2023"/></clipPath><clipPath id="clip23"><rect x="1264" y="591" width="4459" height="2023"/></clipPath><clipPath id="clip24"><rect x="1264" y="591" width="4459" height="2023"/></clipPath><clipPath id="clip25"><rect x="1264" y="591" width="4459" height="2023"/></clipPath><clipPath id="clip26"><rect x="1264" y="591" width="4459" height="2023"/></clipPath><clipPath id="clip27"><rect x="1264" y="591" width="4459" height="2023"/></clipPath><clipPath id="clip28"><rect x="1264" y="591" width="4459" height="2023"/></clipPath><clipPath id="clip29"><rect x="1264" y="591" width="4459" height="2023"/></clipPath><clipPath id="clip30"><rect x="1264" y="591" width="4459" height="2023"/></clipPath><clipPath id="clip31"><rect x="1264" y="591" width="4459" height="2023"/></clipPath><clipPath id="clip32"><rect x="1264" y="591" width="4459" height="2023"/></clipPath><clipPath id="clip33"><rect x="1264" y="591" width="4459" height="2023"/></clipPath><clipPath id="clip34"><rect x="1264" y="591" width="4459" height="2023"/></clipPath><clipPath id="clip35"><rect x="1264" y="591" width="4459" height="2023"/></clipPath><clipPath id="clip36"><rect x="1264" y="591" width="4459" height="2023"/></clipPath><clipPath id="clip37"><rect x="1264" y="591" width="4459" height="2023"/></clipPath></defs><g clip-path="url(#clip0)" transform="translate(-1264 -590)"><rect x="1265" y="591" width="4458" height="2023" fill="#FFFFFF"/><g clip-path="url(#clip1)"><path d="M1492.5 2174.57 5295.5 2174.57M1492.5 1939.56 5295.5 1939.56M1492.5 1703.56 5295.5 1703.56M1492.5 1468.55 5295.5 1468.55M1492.5 1232.54 5295.5 1232.54M1492.5 996.533 5295.5 996.533M1492.5 761.5 5295.5 761.5" stroke="#D9D9D9" stroke-width="3.4375" stroke-linejoin="round" stroke-miterlimit="10" fill="none"/></g><g clip-path="url(#clip2)"><path d="M1492.5 2410.5 5295.5 2410.5" stroke="#D9D9D9" stroke-width="3.4375" stroke-linejoin="round" stroke-miterlimit="10" fill="none" fill-rule="evenodd"/></g><g clip-path="url(#clip3)"><path d="M1764.56 1518.55 1764.56 1719.5M1764.56 1518.55 1764.56 1316.5M1754.5 1719.5 1774.5 1719.5M1754.5 1316.5 1774.5 1316.5" stroke="#595959" stroke-width="3.4375" stroke-linejoin="round" stroke-miterlimit="10" fill="none"/></g><g clip-path="url(#clip4)"><path d="M2307.58 1625.55 2307.58 1806.5M2307.58 1625.55 2307.58 1445.5M2297.5 1806.5 2318.5 1806.5M2297.5 1445.5 2318.5 1445.5" stroke="#595959" stroke-width="3.4375" stroke-linejoin="round" stroke-miterlimit="10" fill="none"/></g><g clip-path="url(#clip5)"><path d="M2850.59 1545.55 2850.59 1738.5M2850.59 1545.55 2850.59 1351.5M2840.5 1738.5 2861.5 1738.5M2840.5 1351.5 2861.5 1351.5" stroke="#595959" stroke-width="3.4375" stroke-linejoin="round" stroke-miterlimit="10" fill="none"/></g><g clip-path="url(#clip6)"><path d="M3394.61 1460.55 3394.61 1739.5M3394.61 1460.55 3394.61 1181.5M3383.5 1739.5 3404.5 1739.5M3383.5 1181.5 3404.5 1181.5" stroke="#595959" stroke-width="3.4375" stroke-linejoin="round" stroke-miterlimit="10" fill="none"/></g><g clip-path="url(#clip7)"><path d="M3937.63 1234.54 3937.63 1501.5M3937.63 1234.54 3937.63 966.5M3927.5 1501.5 3947.5 1501.5M3927.5 966.5 3947.5 966.5" stroke="#595959" stroke-width="3.4375" stroke-linejoin="round" stroke-miterlimit="10" fill="none"/></g><g clip-path="url(#clip8)"><path d="M4480.65 1543.55 4480.65 1727.5M4480.65 1543.55 4480.65 1360.5M4470.5 1727.5 4491.5 1727.5M4470.5 1360.5 4491.5 1360.5" stroke="#595959" stroke-width="3.4375" stroke-linejoin="round" stroke-miterlimit="10" fill="none"/></g><g clip-path="url(#clip9)"><path d="M5023.67 1519.55 5023.67 1737.5M5023.67 1519.55 5023.67 1301.5M5013.5 1737.5 5034.5 1737.5M5013.5 1301.5 5034.5 1301.5" stroke="#595959" stroke-width="3.4375" stroke-linejoin="round" stroke-miterlimit="10" fill="none"/></g><g clip-path="url(#clip10)"><path d="M1775.5 1518.75C1775.5 1524.82 1770.57 1529.75 1764.5 1529.75 1758.42 1529.75 1753.5 1524.82 1753.5 1518.75 1753.5 1512.68 1758.42 1507.75 1764.5 1507.75 1770.57 1507.75 1775.5 1512.68 1775.5 1518.75Z" stroke="#4472C4" stroke-width="3.4375" stroke-linejoin="round" stroke-miterlimit="10" fill="#4472C4"/><path d="M2318.5 1625.75C2318.5 1631.82 2313.57 1636.75 2307.5 1636.75 2301.42 1636.75 2296.5 1631.82 2296.5 1625.75 2296.5 1619.67 2301.42 1614.75 2307.5 1614.75 2313.57 1614.75 2318.5 1619.67 2318.5 1625.75Z" stroke="#4472C4" stroke-width="3.4375" stroke-linejoin="round" stroke-miterlimit="10" fill="#4472C4"/><path d="M2862.5 1545.75C2862.5 1551.82 2857.57 1556.75 2851.5 1556.75 2845.42 1556.75 2840.5 1551.82 2840.5 1545.75 2840.5 1539.67 2845.42 1534.75 2851.5 1534.75 2857.57 1534.75 2862.5 1539.67 2862.5 1545.75Z" stroke="#4472C4" stroke-width="3.4375" stroke-linejoin="round" stroke-miterlimit="10" fill="#4472C4"/><path d="M3405.5 1460.75C3405.5 1466.82 3400.57 1471.75 3394.5 1471.75 3388.42 1471.75 3383.5 1466.82 3383.5 1460.75 3383.5 1454.67 3388.42 1449.75 3394.5 1449.75 3400.57 1449.75 3405.5 1454.67 3405.5 1460.75Z" stroke="#4472C4" stroke-width="3.4375" stroke-linejoin="round" stroke-miterlimit="10" fill="#4472C4"/><path d="M3948.5 1234.75C3948.5 1240.82 3943.57 1245.75 3937.5 1245.75 3931.42 1245.75 3926.5 1240.82 3926.5 1234.75 3926.5 1228.67 3931.42 1223.75 3937.5 1223.75 3943.57 1223.75 3948.5 1228.67 3948.5 1234.75Z" stroke="#4472C4" stroke-width="3.4375" stroke-linejoin="round" stroke-miterlimit="10" fill="#4472C4"/><path d="M4491.5 1543.75C4491.5 1549.82 4486.57 1554.75 4480.5 1554.75 4474.42 1554.75 4469.5 1549.82 4469.5 1543.75 4469.5 1537.67 4474.42 1532.75 4480.5 1532.75 4486.57 1532.75 4491.5 1537.67 4491.5 1543.75Z" stroke="#4472C4" stroke-width="3.4375" stroke-linejoin="round" stroke-miterlimit="10" fill="#4472C4"/><path d="M5034.5 1519.75C5034.5 1525.82 5029.57 1530.75 5023.5 1530.75 5017.42 1530.75 5012.5 1525.82 5012.5 1519.75 5012.5 1513.67 5017.42 1508.75 5023.5 1508.75 5029.57 1508.75 5034.5 1513.67 5034.5 1519.75Z" stroke="#4472C4" stroke-width="3.4375" stroke-linejoin="round" stroke-miterlimit="10" fill="#4472C4"/></g><g clip-path="url(#clip11)"><text fill="#404040" font-family="Calibri,Calibri_MSFontService,sans-serif" font-weight="400" font-size="41" transform="matrix(1 0 0 1 1803.52 1532)">505.5761337</text></g><g clip-path="url(#clip12)"><text fill="#404040" font-family="Calibri,Calibri_MSFontService,sans-serif" font-weight="400" font-size="41" transform="matrix(1 0 0 1 2346.74 1640)">504.6606064</text></g><g clip-path="url(#clip13)"><text fill="#404040" font-family="Calibri,Calibri_MSFontService,sans-serif" font-weight="400" font-size="41" transform="matrix(1 0 0 1 2889.97 1559)">505.3472519</text></g><g clip-path="url(#clip14)"><text fill="#404040" font-family="Calibri,Calibri_MSFontService,sans-serif" font-weight="400" font-size="41" transform="matrix(1 0 0 1 3433.2 1475)">506.0625076</text></g><g clip-path="url(#clip15)"><text fill="#404040" font-family="Calibri,Calibri_MSFontService,sans-serif" font-weight="400" font-size="41" transform="matrix(1 0 0 1 3976.42 1248)">507.9865456</text></g><g clip-path="url(#clip16)"><text fill="#404040" font-family="Calibri,Calibri_MSFontService,sans-serif" font-weight="400" font-size="41" transform="matrix(1 0 0 1 4519.65 1557)">505.3591728</text></g><g clip-path="url(#clip17)"><text fill="#404040" font-family="Calibri,Calibri_MSFontService,sans-serif" font-weight="400" font-size="41" transform="matrix(1 0 0 1 5062.87 1533)">505.5642128</text></g><g clip-path="url(#clip18)"><text fill="#595959" font-family="Calibri,Calibri_MSFontService,sans-serif" font-weight="400" font-size="41" transform="matrix(1 0 0 1 1391.98 2422)">498</text></g><g clip-path="url(#clip19)"><text fill="#595959" font-family="Calibri,Calibri_MSFontService,sans-serif" font-weight="400" font-size="41" transform="matrix(1 0 0 1 1391.98 2187)">500</text></g><g clip-path="url(#clip20)"><text fill="#595959" font-family="Calibri,Calibri_MSFontService,sans-serif" font-weight="400" font-size="41" transform="matrix(1 0 0 1 1391.98 1951)">502</text></g><g clip-path="url(#clip21)"><text fill="#595959" font-family="Calibri,Calibri_MSFontService,sans-serif" font-weight="400" font-size="41" transform="matrix(1 0 0 1 1391.98 1715)">504</text></g><g clip-path="url(#clip22)"><text fill="#595959" font-family="Calibri,Calibri_MSFontService,sans-serif" font-weight="400" font-size="41" transform="matrix(1 0 0 1 1391.98 1480)">506</text></g><g clip-path="url(#clip23)"><text fill="#595959" font-family="Calibri,Calibri_MSFontService,sans-serif" font-weight="400" font-size="41" transform="matrix(1 0 0 1 1391.98 1244)">508</text></g><g clip-path="url(#clip24)"><text fill="#595959" font-family="Calibri,Calibri_MSFontService,sans-serif" font-weight="400" font-size="41" transform="matrix(1 0 0 1 1391.98 1008)">510</text></g><g clip-path="url(#clip25)"><text fill="#595959" font-family="Calibri,Calibri_MSFontService,sans-serif" font-weight="400" font-size="41" transform="matrix(1 0 0 1 1391.98 773)">512</text></g><g clip-path="url(#clip26)"><text fill="#595959" font-family="Calibri,Calibri_MSFontService,sans-serif" font-weight="400" font-size="41" transform="matrix(1 0 0 1 1754.11 2476)">2</text></g><g clip-path="url(#clip27)"><text fill="#595959" font-family="Calibri,Calibri_MSFontService,sans-serif" font-weight="400" font-size="41" transform="matrix(1 0 0 1 2297.34 2476)">4</text></g><g clip-path="url(#clip28)"><text fill="#595959" font-family="Calibri,Calibri_MSFontService,sans-serif" font-weight="400" font-size="41" transform="matrix(1 0 0 1 2840.56 2476)">8</text></g><g clip-path="url(#clip29)"><text fill="#595959" font-family="Calibri,Calibri_MSFontService,sans-serif" font-weight="400" font-size="41" transform="matrix(1 0 0 1 3373.34 2476)">16</text></g><g clip-path="url(#clip30)"><text fill="#595959" font-family="Calibri,Calibri_MSFontService,sans-serif" font-weight="400" font-size="41" transform="matrix(1 0 0 1 3916.56 2476)">32</text></g><g clip-path="url(#clip31)"><text fill="#595959" font-family="Calibri,Calibri_MSFontService,sans-serif" font-weight="400" font-size="41" transform="matrix(1 0 0 1 4459.79 2476)">64</text></g><g clip-path="url(#clip32)"><text fill="#595959" font-family="Calibri,Calibri_MSFontService,sans-serif" font-weight="400" font-size="41" transform="matrix(1 0 0 1 4992.57 2476)">128</text></g><g clip-path="url(#clip33)"><text fill="#595959" font-family="Calibri,Calibri_MSFontService,sans-serif" font-weight="400" font-size="46" transform="matrix(6.12323e-17 -1 1 6.12323e-17 1366.29 1722)">Microsecpmds</text></g><g clip-path="url(#clip34)"><text fill="#595959" font-family="Calibri,Calibri_MSFontService,sans-serif" font-weight="400" font-size="46" transform="matrix(1 0 0 1 3343.36 2545)">Bytes</text></g><g clip-path="url(#clip35)"><text fill="#595959" font-family="Calibri,Calibri_MSFontService,sans-serif" font-weight="400" font-size="64" transform="matrix(1 0 0 1 3221.31 687)">RSA Decryption Time</text></g><g clip-path="url(#clip36)"><path d="M5389 1662C5389 1668.07 5384.08 1673 5378 1673 5371.92 1673 5367 1668.07 5367 1662 5367 1655.92 5371.92 1651 5378 1651 5384.08 1651 5389 1655.92 5389 1662Z" stroke="#4472C4" stroke-width="3.4375" stroke-linejoin="round" stroke-miterlimit="10" fill="#4472C4"/></g><g clip-path="url(#clip37)"><text fill="#595959" font-family="Calibri,Calibri_MSFontService,sans-serif" font-weight="400" font-size="41" transform="matrix(1 0 0 1 5399.85 1674)">Decryption Time</text></g><rect x="1265.5" y="591.5" width="4458" height="2023" stroke="#D9D9D9" stroke-width="3.4375" stroke-linejoin="round" stroke-miterlimit="10" fill="none"/></g></svg>