<svg width="4461" height="2026" xmlns="http://www.w3.org/2000/svg" xmlns:xlink="http://www.w3.org/1999/xlink" overflow="hidden"><defs><clipPath id="clip0"><rect x="1264" y="590" width="4461" height="2026"/></clipPath><clipPath id="clip1"><rect x="1264" y="591" width="4459" height="2023"/></clipPath><clipPath id="clip2"><rect x="1264" y="591" width="4459" height="2023"/></clipPath><clipPath id="clip3"><rect x="1513" y="761" width="3790" height="1649"/></clipPath><clipPath id="clip4"><rect x="1513" y="761" width="3790" height="1649"/></clipPath><clipPath id="clip5"><rect x="1513" y="761" width="3790" height="1649"/></clipPath><clipPath id="clip6"><rect x="1513" y="761" width="3790" height="1649"/></clipPath><clipPath id="clip7"><rect x="1513" y="761" width="3790" height="1649"/></clipPath><clipPath id="clip8"><rect x="1513" y="761" width="3790" height="1649"/></clipPath><clipPath id="clip9"><rect x="1513" y="761" width="3790" height="1649"/></clipPath><clipPath id="clip10"><rect x="1264" y="591" width="4459" height="2023"/></clipPath><clipPath id="clip11"><rect x="1264" y="591" width="4459" height="2023"/></clipPath><clipPath id="clip12"><rect x="1264" y="591" width="4459" height="2023"/></clipPath><clipPath id="clip13"><rect x="1264" y="591" width="4459" height="2023"/></clipPath><clipPath id="clip14"><rect x="1264" y="591" width="4459" height="2023"/></clipPath><clipPath id="clip15"><rect x="1264" y="591" width="4459" height="2023"/></clipPath><clipPath id="clip16"><rect x="1264" y="591" width="4459" height="2023"/></clipPath><clipPath id="clip17"><rect x="1264" y="591" width="4459" height="2023"/></clipPath><clipPath id="clip18"><rect x="1264" y="591" width="4459" height="2023"/></clipPath><clipPath id="clip19"><rect x="1264" y="591" width="4459" height="2023"/></clipPath><clipPath id="clip20"><rect x="1264" y="591" width="4459" height="2023"/></clipPath><clipPath id="clip21"><rect x="1264" y="591" width="4459" height="2023"/></clipPath><clipPath id="clip22"><rect x="1264" y="591" width="4459" height="2023"/></clipPath><clipPath id="clip23"><rect x="1264" y="591" width="4459" height="2023"/></clipPath><clipPath id="clip24"><rect x="1264" y="591" width="4459" height="2023"/></clipPath><clipPath id="clip25"><rect x="1264" y="591" width="4459" height="2023"/></clipPath><clipPath id="clip26"><rect x="1264" y="591" width="4459" height="2023"/></clipPath><clipPath id="clip27"><rect x="1264" y="591" width="4459" height="2023"/></clipPath><clipPath id="clip28"><rect x="1264" y="591" width="4459" height="2023"/></clipPath><clipPath id="clip29"><rect x="1264" y="591" width="4459" height="2023"/></clipPath><clipPath id="clip30"><rect x="1264" y="591" width="4459" height="2023"/></clipPath><clipPath id="clip31"><rect x="1264" y="591" width="4459" height="2023"/></clipPath><clipPath id="clip32"><rect x="1264" y="591" width="4459" height="2023"/></clipPath><clipPath id="clip33"><rect x="1264" y="591" width="4459" height="2023"/></clipPath><clipPath id="clip34"><rect x="1264" y="591" width="4459" height="2023"/></clipPath><clipPath id="clip35"><rect x="1264" y="591" width="4459" height="2023"/></clipPath><clipPath id="clip36"><rect x="1264" y="591" width="4459" height="2023"/></clipPath></defs><g clip-path="url(#clip0)" transform="translate(-1264 -590)"><rect x="1265" y="591" width="4458" height="2023" fill="#FFFFFF"/><g clip-path="url(#clip1)"><path d="M1513.5 2135.57 5299.5 2135.57M1513.5 1860.56 5299.5 1860.56M1513.5 1585.55 5299.5 1585.55M1513.5 1311.54 5299.5 1311.54M1513.5 1036.53 5299.5 1036.53M1513.5 761.5 5299.5 761.5" stroke="#D9D9D9" stroke-width="3.4375" stroke-linejoin="round" stroke-miterlimit="10" fill="none"/></g><g clip-path="url(#clip2)"><path d="M1513.5 2410.5 5299.5 2410.5" stroke="#D9D9D9" stroke-width="3.4375" stroke-linejoin="round" stroke-miterlimit="10" fill="none" fill-rule="evenodd"/></g><g clip-path="url(#clip3)"><path d="M1784.56 2401.58 1784.56 2401.5M1784.56 2401.58 1784.56 2400.5M1773.5 2401.5 1794.5 2401.5M1773.5 2400.5 1794.5 2400.5" stroke="#595959" stroke-width="3.4375" stroke-linejoin="round" stroke-miterlimit="10" fill="none"/></g><g clip-path="url(#clip4)"><path d="M2325.58 2401.58 2325.58 2402.5M2325.58 2401.58 2325.58 2401.5M2314.5 2402.5 2335.5 2402.5M2314.5 2401.5 2335.5 2401.5" stroke="#595959" stroke-width="3.4375" stroke-linejoin="round" stroke-miterlimit="10" fill="none"/></g><g clip-path="url(#clip5)"><path d="M2865.59 2399.58 2865.59 2400.5M2865.59 2399.58 2865.59 2399.5M2855.5 2400.5 2876.5 2400.5M2855.5 2399.5 2876.5 2399.5" stroke="#595959" stroke-width="3.4375" stroke-linejoin="round" stroke-miterlimit="10" fill="none"/></g><g clip-path="url(#clip6)"><path d="M3406.61 2392.58 3406.61 2393.5M3406.61 2392.58 3406.61 2390.5M3396.5 2393.5 3417.5 2393.5M3396.5 2390.5 3417.5 2390.5" stroke="#595959" stroke-width="3.4375" stroke-linejoin="round" stroke-miterlimit="10" fill="none"/></g><g clip-path="url(#clip7)"><path d="M3947.63 2368.58 3947.63 2369.5M3947.63 2368.58 3947.63 2367.5M3937.5 2369.5 3957.5 2369.5M3937.5 2367.5 3957.5 2367.5" stroke="#595959" stroke-width="3.4375" stroke-linejoin="round" stroke-miterlimit="10" fill="none"/></g><g clip-path="url(#clip8)"><path d="M4488.65 2209.57 4488.65 2212.5M4488.65 2209.57 4488.65 2205.5M4478.5 2212.5 4498.5 2212.5M4478.5 2205.5 4498.5 2205.5" stroke="#595959" stroke-width="3.4375" stroke-linejoin="round" stroke-miterlimit="10" fill="none"/></g><g clip-path="url(#clip9)"><path d="M5029.67 1000.53 5029.67 1006.5M5029.67 1000.53 5029.67 994.5M5018.5 1006.5 5039.5 1006.5M5018.5 994.5 5039.5 994.5" stroke="#595959" stroke-width="3.4375" stroke-linejoin="round" stroke-miterlimit="10" fill="none"/></g><g clip-path="url(#clip10)"><path d="M1795.5 2401.75C1795.5 2407.82 1790.57 2412.75 1784.5 2412.75 1778.42 2412.75 1773.5 2407.82 1773.5 2401.75 1773.5 2395.67 1778.42 2390.75 1784.5 2390.75 1790.57 2390.75 1795.5 2395.67 1795.5 2401.75Z" stroke="#4472C4" stroke-width="3.4375" stroke-linejoin="round" stroke-miterlimit="10" fill="#4472C4"/><path d="M2336.5 2401.75C2336.5 2407.82 2331.57 2412.75 2325.5 2412.75 2319.42 2412.75 2314.5 2407.82 2314.5 2401.75 2314.5 2395.67 2319.42 2390.75 2325.5 2390.75 2331.57 2390.75 2336.5 2395.67 2336.5 2401.75Z" stroke="#4472C4" stroke-width="3.4375" stroke-linejoin="round" stroke-miterlimit="10" fill="#4472C4"/><path d="M2876.5 2399.75C2876.5 2405.82 2871.57 2410.75 2865.5 2410.75 2859.42 2410.75 2854.5 2405.82 2854.5 2399.75 2854.5 2393.67 2859.42 2388.75 2865.5 2388.75 2871.57 2388.75 2876.5 2393.67 2876.5 2399.75Z" stroke="#4472C4" stroke-width="3.4375" stroke-linejoin="round" stroke-miterlimit="10" fill="#4472C4"/><path d="M3417.5 2392.75C3417.5 2398.82 3412.57 2403.75 3406.5 2403.75 3400.42 2403.75 3395.5 2398.82 3395.5 2392.75 3395.5 2386.67 3400.42 2381.75 3406.5 2381.75 3412.57 2381.75 3417.5 2386.67 3417.5 2392.75Z" stroke="#4472C4" stroke-width="3.4375" stroke-linejoin="round" stroke-miterlimit="10" fill="#4472C4"/><path d="M3958.5 2368.75C3958.5 2374.82 3953.57 2379.75 3947.5 2379.75 3941.42 2379.75 3936.5 2374.82 3936.5 2368.75 3936.5 2362.67 3941.42 2357.75 3947.5 2357.75 3953.57 2357.75 3958.5 2362.67 3958.5 2368.75Z" stroke="#4472C4" stroke-width="3.4375" stroke-linejoin="round" stroke-miterlimit="10" fill="#4472C4"/><path d="M4499.5 2209.75C4499.5 2215.82 4494.57 2220.75 4488.5 2220.75 4482.42 2220.75 4477.5 2215.82 4477.5 2209.75 4477.5 2203.67 4482.42 2198.75 4488.5 2198.75 4494.57 2198.75 4499.5 2203.67 4499.5 2209.75Z" stroke="#4472C4" stroke-width="3.4375" stroke-linejoin="round" stroke-miterlimit="10" fill="#4472C4"/><path d="M5040.5 1000.75C5040.5 1006.82 5035.57 1011.75 5029.5 1011.75 5023.42 1011.75 5018.5 1006.82 5018.5 1000.75 5018.5 994.675 5023.42 989.75 5029.5 989.75 5035.57 989.75 5040.5 994.675 5040.5 1000.75Z" stroke="#4472C4" stroke-width="3.4375" stroke-linejoin="round" stroke-miterlimit="10" fill="#4472C4"/></g><g clip-path="url(#clip11)"><text fill="#404040" font-family="Calibri,Calibri_MSFontService,sans-serif" font-weight="400" font-size="41" transform="matrix(1 0 0 1 1823.22 2415)">6.992816925</text></g><g clip-path="url(#clip12)"><text fill="#404040" font-family="Calibri,Calibri_MSFontService,sans-serif" font-weight="400" font-size="41" transform="matrix(1 0 0 1 2364.04 2415)">6.792545319</text></g><g clip-path="url(#clip13)"><text fill="#404040" font-family="Calibri,Calibri_MSFontService,sans-serif" font-weight="400" font-size="41" transform="matrix(1 0 0 1 2904.86 2414)">8.018016815</text></g><g clip-path="url(#clip14)"><text fill="#404040" font-family="Calibri,Calibri_MSFontService,sans-serif" font-weight="400" font-size="41" transform="matrix(1 0 0 1 3445.69 2406)">13.51356506</text></g><g clip-path="url(#clip15)"><text fill="#404040" font-family="Calibri,Calibri_MSFontService,sans-serif" font-weight="400" font-size="41" transform="matrix(1 0 0 1 3986.51 2382)">30.80129623</text></g><g clip-path="url(#clip16)"><text fill="#404040" font-family="Calibri,Calibri_MSFontService,sans-serif" font-weight="400" font-size="41" transform="matrix(1 0 0 1 4527.33 2223)">146.6798782</text></g><g clip-path="url(#clip17)"><text fill="#404040" font-family="Calibri,Calibri_MSFontService,sans-serif" font-weight="400" font-size="41" transform="matrix(1 0 0 1 5068.15 1014)">1026.024818</text></g><g clip-path="url(#clip18)"><text fill="#595959" font-family="Calibri,Calibri_MSFontService,sans-serif" font-weight="400" font-size="41" transform="matrix(1 0 0 1 1454.68 2422)">0</text></g><g clip-path="url(#clip19)"><text fill="#595959" font-family="Calibri,Calibri_MSFontService,sans-serif" font-weight="400" font-size="41" transform="matrix(1 0 0 1 1412.88 2147)">200</text></g><g clip-path="url(#clip20)"><text fill="#595959" font-family="Calibri,Calibri_MSFontService,sans-serif" font-weight="400" font-size="41" transform="matrix(1 0 0 1 1412.88 1872)">400</text></g><g clip-path="url(#clip21)"><text fill="#595959" font-family="Calibri,Calibri_MSFontService,sans-serif" font-weight="400" font-size="41" transform="matrix(1 0 0 1 1412.88 1598)">600</text></g><g clip-path="url(#clip22)"><text fill="#595959" font-family="Calibri,Calibri_MSFontService,sans-serif" font-weight="400" font-size="41" transform="matrix(1 0 0 1 1412.88 1323)">800</text></g><g clip-path="url(#clip23)"><text fill="#595959" font-family="Calibri,Calibri_MSFontService,sans-serif" font-weight="400" font-size="41" transform="matrix(1 0 0 1 1391.98 1048)">1000</text></g><g clip-path="url(#clip24)"><text fill="#595959" font-family="Calibri,Calibri_MSFontService,sans-serif" font-weight="400" font-size="41" transform="matrix(1 0 0 1 1391.98 773)">1200</text></g><g clip-path="url(#clip25)"><text fill="#595959" font-family="Calibri,Calibri_MSFontService,sans-serif" font-weight="400" font-size="41" transform="matrix(1 0 0 1 1773.81 2476)">8</text></g><g clip-path="url(#clip26)"><text fill="#595959" font-family="Calibri,Calibri_MSFontService,sans-serif" font-weight="400" font-size="41" transform="matrix(1 0 0 1 2304.18 2476)">64</text></g><g clip-path="url(#clip27)"><text fill="#595959" font-family="Calibri,Calibri_MSFontService,sans-serif" font-weight="400" font-size="41" transform="matrix(1 0 0 1 2834.56 2476)">512</text></g><g clip-path="url(#clip28)"><text fill="#595959" font-family="Calibri,Calibri_MSFontService,sans-serif" font-weight="400" font-size="41" transform="matrix(1 0 0 1 3364.93 2476)">4096</text></g><g clip-path="url(#clip29)"><text fill="#595959" font-family="Calibri,Calibri_MSFontService,sans-serif" font-weight="400" font-size="41" transform="matrix(1 0 0 1 3895.3 2476)">32768</text></g><g clip-path="url(#clip30)"><text fill="#595959" font-family="Calibri,Calibri_MSFontService,sans-serif" font-weight="400" font-size="41" transform="matrix(1 0 0 1 4425.67 2476)">262144</text></g><g clip-path="url(#clip31)"><text fill="#595959" font-family="Calibri,Calibri_MSFontService,sans-serif" font-weight="400" font-size="41" transform="matrix(1 0 0 1 4956.05 2476)">2047152</text></g><g clip-path="url(#clip32)"><text fill="#595959" font-family="Calibri,Calibri_MSFontService,sans-serif" font-weight="400" font-size="46" transform="matrix(6.12323e-17 -1 1 6.12323e-17 1366.29 1722)">Microsecpmds</text></g><g clip-path="url(#clip33)"><text fill="#595959" font-family="Calibri,Calibri_MSFontService,sans-serif" font-weight="400" font-size="46" transform="matrix(1 0 0 1 3355.85 2545)">Bytes</text></g><g clip-path="url(#clip34)"><text fill="#595959" font-family="Calibri,Calibri_MSFontService,sans-serif" font-weight="400" font-size="64" transform="matrix(1 0 0 1 3172.48 687)">SHA256 Encryption Time</text></g><g clip-path="url(#clip35)"><path d="M5393 1662C5393 1668.07 5388.08 1673 5382 1673 5375.92 1673 5371 1668.07 5371 1662 5371 1655.92 5375.92 1651 5382 1651 5388.08 1651 5393 1655.92 5393 1662Z" stroke="#4472C4" stroke-width="3.4375" stroke-linejoin="round" stroke-miterlimit="10" fill="#4472C4"/></g><g clip-path="url(#clip36)"><text fill="#595959" font-family="Calibri,Calibri_MSFontService,sans-serif" font-weight="400" font-size="41" transform="matrix(1 0 0 1 5403.93 1674)">Encryption Time</text></g><rect x="1265.5" y="591.5" width="4458" height="2023" stroke="#D9D9D9" stroke-width="3.4375" stroke-linejoin="round" stroke-miterlimit="10" fill="none"/></g></svg>